<svg xmlns="http://www.w3.org/2000/svg" xmlns:xlink="http://www.w3.org/1999/xlink" width="1600" height="900" viewBox="0 0 1600 900"><defs><linearGradient id="linear-gradient" x1="800" y1="900" x2="800" gradientUnits="userSpaceOnUse"><stop offset="0" stop-color="#9ef"/><stop offset="1" stop-color="#2aa8e6"/></linearGradient><linearGradient id="linear-gradient-2" x1="989.4" y1="345" x2="989.4" y2="201" gradientUnits="userSpaceOnUse"><stop offset="0" stop-color="#8cd9ff"/><stop offset="1" stop-color="#b8d7e6"/></linearGradient><linearGradient id="linear-gradient-3" x1="1315.8" y1="424" x2="1315.8" y2="316" xlink:href="#linear-gradient-2"/><linearGradient id="linear-gradient-4" x1="551.5" y1="390" x2="551.5" y2="282" xlink:href="#linear-gradient-2"/><linearGradient id="linear-gradient-5" x1="1116" y1="327" x2="1116" y2="167" gradientUnits="userSpaceOnUse"><stop offset="0" stop-color="#c2ebff"/><stop offset="1" stop-color="#e6e6e6"/></linearGradient><linearGradient id="linear-gradient-6" x1="1509.5" y1="356" x2="1509.5" y2="276" xlink:href="#linear-gradient-5"/><linearGradient id="linear-gradient-7" x1="177.3" y1="357" x2="177.3" y2="249" xlink:href="#linear-gradient-2"/><linearGradient id="linear-gradient-8" x1="355" y1="313" x2="355" y2="193" xlink:href="#linear-gradient-5"/><linearGradient id="linear-gradient-9" x1="780" y1="397" x2="780" y2="317" xlink:href="#linear-gradient-5"/></defs><g id="Layer_4" data-name="Layer 4"><rect width="1600" height="900" style="fill:url(#linear-gradient)"/><path d="M1160,273H1149.6a18,18,0,0,1-18-18h0a18,18,0,0,0-18-18h-90a18,18,0,0,1-18-18h0a18,18,0,0,0-18-18H899.4a18,18,0,0,0-18,18h0a18,18,0,0,1-18,18h-14c-9.76,0-18.07,7.59-18.42,17.34A18,18,0,0,0,849,273h9a18,18,0,0,1,18,18h0a18,18,0,0,1-18,18H818.83c-9.76,0-18.07,7.59-18.42,17.34a18,18,0,0,0,18,18.66H945.3a18,18,0,0,0,18-18h0a18,18,0,0,1,18-18h179.1a18,18,0,0,0,18-18.66C1178,280.59,1169.73,273,1160,273Z" style="fill:url(#linear-gradient-2)"/><path d="M1507.07,352H1444.5a18,18,0,0,1-18-18h0a18,18,0,0,0-18-18H1281.6a18,18,0,0,0-18,18h0a18,18,0,0,1-18,18h-28.8a18,18,0,0,0-18,18h0a18,18,0,0,1-18,18h-56.27c-9.76,0-18.07,7.59-18.42,17.34a18,18,0,0,0,18,18.66h207a18,18,0,0,0,18-18h0a18,18,0,0,1,18-18h140.4a18,18,0,0,0,18-18.66C1525.14,359.59,1516.83,352,1507.07,352Z" style="fill:url(#linear-gradient-3)"/><path d="M799.9,282H678.4a18,18,0,0,0-18,18h0a18,18,0,0,1-18,18H593.8a18,18,0,0,1-18-18h0a18,18,0,0,0-18-18H351.23c-9.76,0-18.07,7.59-18.42,17.34a18,18,0,0,0,18,18.66h48.6a18,18,0,0,1,18,18h0a18,18,0,0,1-18,18H303.53c-9.76,0-18.07,7.59-18.42,17.34a18,18,0,0,0,18,18.66H515.5a18,18,0,0,0,18-18h0a18,18,0,0,1,18-18H754.9a18,18,0,0,0,18-18h0a18,18,0,0,1,18-18h8.57c9.76,0,18.07-7.59,18.42-17.34A18,18,0,0,0,799.9,282Z" style="fill:url(#linear-gradient-4)"/><path d="M1278,247H1113a20,20,0,0,1-20-20h0a20,20,0,0,1,20-20h0a20,20,0,0,0,20-20h0a20,20,0,0,0-20-20H954a20,20,0,0,0-20,20h0a20,20,0,0,0,20,20h2a20,20,0,0,1,20,20v5a15,15,0,0,1-15,15h0a20,20,0,0,0-20,20h0a20,20,0,0,0,20,20h80a20,20,0,0,1,20,20h0a20,20,0,0,0,20,20h152a20,20,0,0,0,20-20h0a20,20,0,0,1,20-20h5a20,20,0,0,0,20-20h0A20,20,0,0,0,1278,247Z" style="fill:url(#linear-gradient-5)"/><path d="M1600,276H1439a20,20,0,0,0-20,20h0a20,20,0,0,0,20,20h24a20,20,0,0,1,20,20h0a20,20,0,0,0,20,20h97Z" style="fill:url(#linear-gradient-6)"/><path d="M336.6,249h-207a18,18,0,0,0-18,18,18,18,0,0,1-18,18H0v36H24.3a18,18,0,0,1,18,18h0a18,18,0,0,0,18,18H266.87c9.76,0,18.07-7.59,18.42-17.34a18,18,0,0,0-18-18.66H220.5a18,18,0,0,1-18-18h0a18,18,0,0,1,18-18H336.17c9.76,0,18.07-7.59,18.42-17.34A18,18,0,0,0,336.6,249Z" style="fill:url(#linear-gradient-7)"/><path d="M589,273H573a20,20,0,0,1-20-20h0a20,20,0,0,1,20-20h1a20,20,0,0,0,20-20h0a20,20,0,0,0-20-20H216a20,20,0,0,0-20,20h0a20,20,0,0,1-20,20H121a20,20,0,0,0-20,20h0a20,20,0,0,0,20,20H253a20,20,0,0,1,20,20h0a20,20,0,0,0,20,20H589a20,20,0,0,0,20-20h0A20,20,0,0,0,589,273Z" style="fill:url(#linear-gradient-8)"/><path d="M893.52,357h0A19.52,19.52,0,0,1,874,337.48V337a20,20,0,0,0-20-20H738a20,20,0,0,0-20,20v.48A19.52,19.52,0,0,1,698.48,357h-32c-10.85,0-20.08,8.43-20.47,19.27A20,20,0,0,0,666,397H894a20,20,0,0,0,20-20.73C913.6,365.43,904.37,357,893.52,357Z" style="fill:url(#linear-gradient-9)"/></g></svg>