<svg xmlns="http://www.w3.org/2000/svg" width="190" height="70" viewBox="0 0 190 70"><g id="Layer_4" data-name="Layer 4"><path d="M35.5,70a35,35,0,0,1,0-70h119a35,35,0,0,1,0,70Z" style="fill:#f9e6c5"/><rect x="7.5" y="7" width="175" height="56" rx="28" style="fill:#787878"/><path d="M67.42,27.75v.54A9,9,0,0,1,70.05,26a6.37,6.37,0,0,1,3.08-.73,7.08,7.08,0,0,1,3.81,1.07,7.41,7.41,0,0,1,2.75,3.11,11,11,0,0,1,1,4.86,11.83,11.83,0,0,1-.59,3.8,8.35,8.35,0,0,1-1.6,2.9,7,7,0,0,1-2.4,1.81,7.11,7.11,0,0,1-3,.63,6.27,6.27,0,0,1-3.22-.77,9.31,9.31,0,0,1-2.49-2.27v6.73c0,2-.71,3-2.15,3a1.71,1.71,0,0,1-1.67-.76,4.85,4.85,0,0,1-.41-2.22V27.78a2.83,2.83,0,0,1,.56-1.91,1.93,1.93,0,0,1,1.52-.63,2,2,0,0,1,1.56.64A2.72,2.72,0,0,1,67.42,27.75Zm8.78,6.51a7.72,7.72,0,0,0-.54-3,4.5,4.5,0,0,0-1.5-2A3.62,3.62,0,0,0,72,28.58,4,4,0,0,0,68.91,30a6.38,6.38,0,0,0-1.27,4.3A6.25,6.25,0,0,0,68.9,38.5,4,4,0,0,0,72,40a3.6,3.6,0,0,0,2.07-.65,4.45,4.45,0,0,0,1.53-2A7.74,7.74,0,0,0,76.2,34.26Z" style="fill:#f9e6c5"/><path d="M84.29,40.72V21.3a3,3,0,0,1,.6-2,2,2,0,0,1,1.61-.68,2.09,2.09,0,0,1,1.64.68,2.9,2.9,0,0,1,.63,2V40.72a2.94,2.94,0,0,1-.63,2.05,2.15,2.15,0,0,1-1.64.68,2,2,0,0,1-1.6-.71A3,3,0,0,1,84.29,40.72Z" style="fill:#f9e6c5"/><path d="M104.72,40.92a14.34,14.34,0,0,1-3.15,1.9,8.77,8.77,0,0,1-3.4.63,6.51,6.51,0,0,1-3-.68,5,5,0,0,1-2-1.85,4.8,4.8,0,0,1-.7-2.53,4.54,4.54,0,0,1,1.16-3.13,5.88,5.88,0,0,1,3.2-1.74l2.12-.44c1.12-.23,2.09-.44,2.89-.63s1.68-.43,2.62-.7a4.64,4.64,0,0,0-.71-2.6,3.21,3.21,0,0,0-2.62-.83,5.43,5.43,0,0,0-2.57.48,4.14,4.14,0,0,0-1.47,1.42,14,14,0,0,1-.87,1.26,1.46,1.46,0,0,1-1.1.3,1.92,1.92,0,0,1-1.3-.48,1.57,1.57,0,0,1-.55-1.24,3.8,3.8,0,0,1,.84-2.3,6,6,0,0,1,2.61-1.83,11.55,11.55,0,0,1,4.41-.73,12.54,12.54,0,0,1,4.64.7,4.34,4.34,0,0,1,2.39,2.21,9.7,9.7,0,0,1,.7,4c0,1,0,1.94,0,2.67s0,1.55,0,2.45a9,9,0,0,0,.42,2.63,8.3,8.3,0,0,1,.42,1.77,1.65,1.65,0,0,1-.65,1.25,2.16,2.16,0,0,1-1.47.57,2,2,0,0,1-1.36-.65A9.41,9.41,0,0,1,104.72,40.92Zm-.3-6.48a21.64,21.64,0,0,1-2.86.76c-1.26.27-2.12.47-2.6.59a3.73,3.73,0,0,0-1.38.74,1.9,1.9,0,0,0-.66,1.54,2.3,2.3,0,0,0,.77,1.73,2.89,2.89,0,0,0,2,.71,5.21,5.21,0,0,0,2.45-.58,3.91,3.91,0,0,0,1.65-1.5,6.82,6.82,0,0,0,.61-3.35Z" style="fill:#f9e6c5"/><path d="M117.05,44l.41-1L112,29.12a5.11,5.11,0,0,1-.51-1.73,2,2,0,0,1,.3-1.07,2.12,2.12,0,0,1,.81-.79,2.08,2.08,0,0,1,1.07-.29,1.74,1.74,0,0,1,1.46.61,5.6,5.6,0,0,1,.87,1.77l3.79,11,3.6-10.25a16.39,16.39,0,0,1,.77-2,2.31,2.31,0,0,1,.73-.95,2,2,0,0,1,1.09-.24,1.9,1.9,0,0,1,1,.27,1.83,1.83,0,0,1,.73.73,1.94,1.94,0,0,1,.25,1c0,.21-.11.51-.21.89s-.22.77-.36,1.17l-5.84,15.29A18.34,18.34,0,0,1,120,47.71a4.85,4.85,0,0,1-1.91,1.77,7,7,0,0,1-3.21.61,7.88,7.88,0,0,1-3-.42,1.57,1.57,0,0,1-1-1.56,1.51,1.51,0,0,1,.47-1.19,2,2,0,0,1,1.39-.42,2.37,2.37,0,0,1,.7.1,3.79,3.79,0,0,0,.74.1,2.68,2.68,0,0,0,1.21-.23,2.11,2.11,0,0,0,.8-.8A10.93,10.93,0,0,0,117.05,44Z" style="fill:#f9e6c5"/></g></svg>