<svg xmlns="http://www.w3.org/2000/svg" width="74.11" height="70" viewBox="0 0 74.11 70"><g id="Layer_4" data-name="Layer 4"><path d="M63.14,27.22A27.18,27.18,0,0,0,56.83,16.3l2.9-5A3.12,3.12,0,0,0,58.59,7L50.51,2.36A3.11,3.11,0,0,0,46.26,3.5l-2.9,5a27.23,27.23,0,0,0-12.61,0l-2.9-5a3.12,3.12,0,0,0-4.26-1.14L15.51,7a3.13,3.13,0,0,0-1.14,4.26l2.91,5A27.18,27.18,0,0,0,11,27.22H5.17a3.12,3.12,0,0,0-3.12,3.12v9.32a3.12,3.12,0,0,0,3.12,3.12H11A27.18,27.18,0,0,0,17.28,53.7l-2.91,5A3.13,3.13,0,0,0,15.51,63l8.08,4.66a3.12,3.12,0,0,0,4.26-1.14l2.9-5a27.23,27.23,0,0,0,12.61,0l2.9,5a3.11,3.11,0,0,0,4.25,1.14L58.59,63a3.12,3.12,0,0,0,1.14-4.26l-2.9-5a27.18,27.18,0,0,0,6.31-10.92h5.8a3.12,3.12,0,0,0,3.11-3.12V30.34a3.12,3.12,0,0,0-3.11-3.12ZM38.64,50.48A15.56,15.56,0,1,1,52.53,36.59,15.56,15.56,0,0,1,38.64,50.48Z" style="fill:#787878"/></g></svg>