<svg xmlns="http://www.w3.org/2000/svg" width="220" height="70" viewBox="0 0 220 70"><g id="Layer_4" data-name="Layer 4"><path d="M35.5,70a35,35,0,0,1,0-70h149a35,35,0,0,1,0,70Z" style="fill:#82665a"/><rect x="7.5" y="7" width="205" height="56" rx="28" style="fill:#4d4541"/><path d="M32.89,27.34v.55a9,9,0,0,1,2.66-2.31,6.42,6.42,0,0,1,3.12-.74,7.2,7.2,0,0,1,3.85,1.08,7.4,7.4,0,0,1,2.78,3.15,10.92,10.92,0,0,1,1,4.92,12.08,12.08,0,0,1-.59,3.84,8.83,8.83,0,0,1-1.62,2.94,7.15,7.15,0,0,1-5.45,2.46,6.32,6.32,0,0,1-3.26-.78,9.33,9.33,0,0,1-2.52-2.29V47c0,2-.72,3-2.17,3A1.73,1.73,0,0,1,29,49.18a4.79,4.79,0,0,1-.42-2.25V27.38a2.85,2.85,0,0,1,.57-1.94,2,2,0,0,1,1.54-.63,2,2,0,0,1,1.57.65A2.7,2.7,0,0,1,32.89,27.34Zm8.89,6.6a7.89,7.89,0,0,0-.55-3.08,4.54,4.54,0,0,0-1.52-2,3.63,3.63,0,0,0-2.15-.69,4,4,0,0,0-3.16,1.48A6.44,6.44,0,0,0,33.11,34a6.32,6.32,0,0,0,1.28,4.21,4,4,0,0,0,3.17,1.5,3.62,3.62,0,0,0,2.09-.66,4.51,4.51,0,0,0,1.55-2A8,8,0,0,0,41.78,33.94Z" style="fill:#b38f81"/><path d="M50,40.48V20.82a3,3,0,0,1,.61-2.06,2.06,2.06,0,0,1,1.63-.69,2.13,2.13,0,0,1,1.66.68,3,3,0,0,1,.63,2.07V40.48a2.91,2.91,0,0,1-.64,2.06,2.13,2.13,0,0,1-1.65.69,2,2,0,0,1-1.62-.71A3.05,3.05,0,0,1,50,40.48Z" style="fill:#b38f81"/><path d="M70.63,40.68a14,14,0,0,1-3.18,1.91,8.79,8.79,0,0,1-3.44.64,6.53,6.53,0,0,1-3.07-.69,5,5,0,0,1-2-1.86,4.82,4.82,0,0,1-.71-2.56A4.59,4.59,0,0,1,59.37,35a6,6,0,0,1,3.24-1.76l2.14-.45c1.14-.23,2.12-.44,2.93-.64s1.7-.43,2.65-.7a4.68,4.68,0,0,0-.72-2.64A3.27,3.27,0,0,0,67,27.93a5.54,5.54,0,0,0-2.6.48,4.17,4.17,0,0,0-1.49,1.44c-.42.64-.71,1.07-.88,1.27a1.43,1.43,0,0,1-1.11.31,2,2,0,0,1-1.32-.49A1.6,1.6,0,0,1,59,29.69a3.81,3.81,0,0,1,.85-2.33A6,6,0,0,1,62.5,25.5,11.79,11.79,0,0,1,67,24.77a12.65,12.65,0,0,1,4.7.71,4.34,4.34,0,0,1,2.41,2.23,9.77,9.77,0,0,1,.71,4.05c0,1.06,0,2,0,2.71s0,1.56,0,2.47a9.14,9.14,0,0,0,.42,2.66,8.51,8.51,0,0,1,.42,1.79,1.66,1.66,0,0,1-.65,1.27,2.21,2.21,0,0,1-1.49.57,2.05,2.05,0,0,1-1.38-.65A10,10,0,0,1,70.63,40.68Zm-.3-6.56a23,23,0,0,1-2.9.77c-1.26.27-2.14.47-2.63.6a3.52,3.52,0,0,0-1.39.75,1.91,1.91,0,0,0-.67,1.55,2.3,2.3,0,0,0,.78,1.75,2.91,2.91,0,0,0,2,.72,5.25,5.25,0,0,0,2.48-.59,3.94,3.94,0,0,0,1.67-1.52,6.9,6.9,0,0,0,.61-3.38Z" style="fill:#b38f81"/><path d="M83.11,43.8l.42-1L78,28.74A5.34,5.34,0,0,1,77.44,27a2,2,0,0,1,.3-1.08,2.17,2.17,0,0,1,.82-.8,2.24,2.24,0,0,1,1.08-.29,1.76,1.76,0,0,1,1.48.62A5.66,5.66,0,0,1,82,27.21l3.84,11.16L89.47,28a18.31,18.31,0,0,1,.78-2,2.42,2.42,0,0,1,.74-1,2.13,2.13,0,0,1,1.11-.24,1.93,1.93,0,0,1,1,.27,1.86,1.86,0,0,1,.73.74,1.89,1.89,0,0,1,.26,1c0,.21-.11.51-.21.89s-.23.78-.37,1.18L87.58,44.34a18.66,18.66,0,0,1-1.49,3.21,5,5,0,0,1-1.94,1.78,7,7,0,0,1-3.24.63,7.81,7.81,0,0,1-3-.44,1.56,1.56,0,0,1-1-1.57,1.57,1.57,0,0,1,.47-1.21,2.08,2.08,0,0,1,1.41-.42,2.44,2.44,0,0,1,.71.1,3.23,3.23,0,0,0,.75.1,2.78,2.78,0,0,0,1.23-.23,2.21,2.21,0,0,0,.8-.81A12,12,0,0,0,83.11,43.8Z" style="fill:#b38f81"/><path d="M117.31,40.68a13.6,13.6,0,0,1-3.18,1.91,8.79,8.79,0,0,1-3.44.64,6.51,6.51,0,0,1-3.06-.69,5.11,5.11,0,0,1-2-1.86,4.92,4.92,0,0,1-.71-2.56A4.55,4.55,0,0,1,106.06,35a5.89,5.89,0,0,1,3.23-1.76l2.15-.45c1.14-.23,2.11-.44,2.93-.64s1.69-.43,2.64-.7a4.68,4.68,0,0,0-.72-2.64,3.26,3.26,0,0,0-2.65-.83,5.5,5.5,0,0,0-2.59.48,4.19,4.19,0,0,0-1.5,1.44,14.06,14.06,0,0,1-.88,1.27,1.41,1.41,0,0,1-1.1.31,1.91,1.91,0,0,1-1.32-.49,1.61,1.61,0,0,1-.56-1.25,3.81,3.81,0,0,1,.85-2.33,6,6,0,0,1,2.64-1.86,11.79,11.79,0,0,1,4.46-.73,12.62,12.62,0,0,1,4.7.71,4.36,4.36,0,0,1,2.42,2.23,9.79,9.79,0,0,1,.7,4.05v2.71c0,.74,0,1.56,0,2.47a9.14,9.14,0,0,0,.42,2.66,8.13,8.13,0,0,1,.43,1.79,1.67,1.67,0,0,1-.66,1.27,2.2,2.2,0,0,1-1.48.57,2,2,0,0,1-1.38-.65A9.6,9.6,0,0,1,117.31,40.68Zm-.3-6.56a23.27,23.27,0,0,1-2.89.77c-1.27.27-2.15.47-2.63.6a3.49,3.49,0,0,0-1.4.75,1.91,1.91,0,0,0-.66,1.55,2.3,2.3,0,0,0,.78,1.75,2.89,2.89,0,0,0,2,.72,5.22,5.22,0,0,0,2.48-.59,3.89,3.89,0,0,0,1.67-1.52,6.9,6.9,0,0,0,.61-3.38Z" style="fill:#b38f81"/><path d="M142.28,28.13V41.29a13.75,13.75,0,0,1-.48,3.88,6.21,6.21,0,0,1-1.54,2.69,6.47,6.47,0,0,1-2.78,1.58,15.25,15.25,0,0,1-4.28.52A12.35,12.35,0,0,1,129,49.3a7.24,7.24,0,0,1-2.84-1.69,3.1,3.1,0,0,1-1-2.14,1.75,1.75,0,0,1,.57-1.35,1.91,1.91,0,0,1,1.36-.52,2.22,2.22,0,0,1,1.74.88c.24.3.5.6.76.9a4,4,0,0,0,.86.78,3.27,3.27,0,0,0,1.14.48,6.33,6.33,0,0,0,1.52.16,6.16,6.16,0,0,0,2.74-.49,2.78,2.78,0,0,0,1.36-1.37,5.35,5.35,0,0,0,.45-1.88c0-.67.08-1.75.1-3.23a7.32,7.32,0,0,1-2.41,2.22,6.58,6.58,0,0,1-3.26.77,6.91,6.91,0,0,1-4-1.16,7.49,7.49,0,0,1-2.62-3.26,12.1,12.1,0,0,1-.91-4.83,11.42,11.42,0,0,1,.56-3.68,7.86,7.86,0,0,1,1.58-2.78,6.82,6.82,0,0,1,2.38-1.7,7.46,7.46,0,0,1,2.95-.57,7,7,0,0,1,3.34.74A8.1,8.1,0,0,1,138,27.89v-.61a2.68,2.68,0,0,1,.58-1.83,1.93,1.93,0,0,1,1.5-.64,1.76,1.76,0,0,1,1.74.85A5.58,5.58,0,0,1,142.28,28.13Zm-13.13,5.74a6.29,6.29,0,0,0,1.2,4.17,3.92,3.92,0,0,0,3.12,1.41,4,4,0,0,0,2.13-.61A4.46,4.46,0,0,0,137.24,37a6.38,6.38,0,0,0,.63-3,6.78,6.78,0,0,0-1.22-4.31,3.92,3.92,0,0,0-3.22-1.55,3.76,3.76,0,0,0-3.11,1.48A6.62,6.62,0,0,0,129.15,33.87Z" style="fill:#b38f81"/><path d="M157.47,40.68a13.6,13.6,0,0,1-3.18,1.91,8.79,8.79,0,0,1-3.44.64,6.51,6.51,0,0,1-3.06-.69,5.11,5.11,0,0,1-2-1.86,4.92,4.92,0,0,1-.71-2.56A4.55,4.55,0,0,1,146.22,35a5.89,5.89,0,0,1,3.23-1.76l2.15-.45c1.14-.23,2.11-.44,2.93-.64s1.69-.43,2.64-.7a4.68,4.68,0,0,0-.72-2.64,3.26,3.26,0,0,0-2.65-.83,5.5,5.5,0,0,0-2.59.48,4.19,4.19,0,0,0-1.5,1.44,14.06,14.06,0,0,1-.88,1.27,1.41,1.41,0,0,1-1.1.31,1.91,1.91,0,0,1-1.32-.49,1.61,1.61,0,0,1-.56-1.25,3.81,3.81,0,0,1,.85-2.33,6,6,0,0,1,2.64-1.86,11.79,11.79,0,0,1,4.46-.73,12.62,12.62,0,0,1,4.7.71,4.36,4.36,0,0,1,2.42,2.23,9.79,9.79,0,0,1,.7,4.05c0,1.06,0,2,0,2.71s0,1.56,0,2.47A9.14,9.14,0,0,0,162,39.6a8.13,8.13,0,0,1,.43,1.79,1.67,1.67,0,0,1-.66,1.27,2.21,2.21,0,0,1-1.49.57,2,2,0,0,1-1.37-.65A9.6,9.6,0,0,1,157.47,40.68Zm-.3-6.56a23.27,23.27,0,0,1-2.89.77c-1.27.27-2.15.47-2.63.6a3.49,3.49,0,0,0-1.4.75,1.91,1.91,0,0,0-.66,1.55,2.3,2.3,0,0,0,.78,1.75,2.89,2.89,0,0,0,2,.72,5.22,5.22,0,0,0,2.48-.59,3.89,3.89,0,0,0,1.67-1.52,6.9,6.9,0,0,0,.61-3.38Z" style="fill:#b38f81"/><path d="M168.51,22.7a2.44,2.44,0,0,1-1.62-.58,2.1,2.1,0,0,1-.67-1.65,2,2,0,0,1,.69-1.58,2.29,2.29,0,0,1,1.6-.63,2.35,2.35,0,0,1,1.56.57,2,2,0,0,1,.68,1.64,2.1,2.1,0,0,1-.66,1.64A2.31,2.31,0,0,1,168.51,22.7Zm2.24,4.68v13.1a3,3,0,0,1-.64,2.06,2.17,2.17,0,0,1-1.65.69,2,2,0,0,1-1.62-.71,3.05,3.05,0,0,1-.62-2v-13a2.91,2.91,0,0,1,.62-2,2.09,2.09,0,0,1,1.62-.68,2.17,2.17,0,0,1,1.65.68A2.62,2.62,0,0,1,170.75,27.38Z" style="fill:#b38f81"/><path d="M179.55,27.31v.55a8.06,8.06,0,0,1,2.62-2.32,7,7,0,0,1,3.26-.73,6.61,6.61,0,0,1,3.2.77,5,5,0,0,1,2.11,2.21,5.28,5.28,0,0,1,.58,1.8,18.1,18.1,0,0,1,.14,2.45v8.44a3,3,0,0,1-.63,2.06,2.25,2.25,0,0,1-3.26,0,3,3,0,0,1-.63-2V32.92a7.59,7.59,0,0,0-.62-3.42,2.52,2.52,0,0,0-2.48-1.19,3.68,3.68,0,0,0-2.21.72,4.1,4.1,0,0,0-1.46,2,14.22,14.22,0,0,0-.34,3.79v5.68a3,3,0,0,1-.63,2.06,2.17,2.17,0,0,1-1.66.69,2,2,0,0,1-1.61-.71,3,3,0,0,1-.63-2V27.38a2.85,2.85,0,0,1,.57-1.94,2,2,0,0,1,1.54-.63,2.07,2.07,0,0,1,1.08.28,2,2,0,0,1,.77.84A2.93,2.93,0,0,1,179.55,27.31Z" style="fill:#b38f81"/></g></svg>