<svg xmlns="http://www.w3.org/2000/svg" width="220" height="70" viewBox="0 0 220 70"><g id="Layer_4" data-name="Layer 4"><path d="M35.5,70a35,35,0,0,1,0-70h149a35,35,0,0,1,0,70Z" style="fill:#82665a"/><rect x="7.5" y="7" width="205" height="56" rx="28" style="fill:#4d4541"/><path d="M40.61,25.2h.49V22.48c0-.73,0-1.3.06-1.72a2.54,2.54,0,0,1,.33-1.07,2,2,0,0,1,.76-.75,2.09,2.09,0,0,1,1.11-.29,2.22,2.22,0,0,1,1.56.64,1.91,1.91,0,0,1,.59,1.06,9.69,9.69,0,0,1,.13,1.77V25.2H47.3a2.16,2.16,0,0,1,1.47.46,1.51,1.51,0,0,1,.5,1.17,1.31,1.31,0,0,1-.72,1.28,4.75,4.75,0,0,1-2.07.36h-.84v8.34a13.54,13.54,0,0,0,.07,1.63,1.62,1.62,0,0,0,.4.93,1.35,1.35,0,0,0,1,.36,5.89,5.89,0,0,0,1.08-.14,5.2,5.2,0,0,1,1.06-.14,1.33,1.33,0,0,1,1,.44A1.43,1.43,0,0,1,50.73,41a1.82,1.82,0,0,1-1.19,1.68,8.08,8.08,0,0,1-3.44.58,6,6,0,0,1-3.22-.71,3.36,3.36,0,0,1-1.44-2,13.7,13.7,0,0,1-.34-3.37v-8.7h-.59A2.16,2.16,0,0,1,39,28a1.52,1.52,0,0,1-.51-1.18A1.45,1.45,0,0,1,39,25.66,2.39,2.39,0,0,1,40.61,25.2Z" style="fill:#b38f81"/><path d="M56.89,36.69v3.79a2.86,2.86,0,0,1-.65,2.06,2.15,2.15,0,0,1-1.64.69A2.09,2.09,0,0,1,53,42.54a3,3,0,0,1-.63-2.06V27.86c0-2,.74-3.06,2.21-3.06a1.82,1.82,0,0,1,1.62.72,3.83,3.83,0,0,1,.55,2.11,7.8,7.8,0,0,1,1.67-2.11,3.42,3.42,0,0,1,2.28-.72,5.82,5.82,0,0,1,2.78.72,2.13,2.13,0,0,1,1.34,1.89,1.81,1.81,0,0,1-.57,1.37,1.78,1.78,0,0,1-1.24.54A5.29,5.29,0,0,1,61.8,29a5.75,5.75,0,0,0-1.69-.3,2.44,2.44,0,0,0-1.62.52,3.25,3.25,0,0,0-1,1.55A10.49,10.49,0,0,0,57,33.23C56.94,34.18,56.89,35.33,56.89,36.69Z" style="fill:#b38f81"/><path d="M71.47,43.8l.41-1-5.58-14A5.34,5.34,0,0,1,65.79,27a2,2,0,0,1,.3-1.08,2.25,2.25,0,0,1,.82-.8A2.16,2.16,0,0,1,68,24.8a1.79,1.79,0,0,1,1.48.63,5.88,5.88,0,0,1,.88,1.78l3.83,11.16L77.83,28a14.89,14.89,0,0,1,.78-2,2.26,2.26,0,0,1,.74-1,2.08,2.08,0,0,1,1.1-.25,2,2,0,0,1,1,.28,1.92,1.92,0,0,1,.73.74,2,2,0,0,1,.25,1c0,.21-.11.51-.21.89a11.41,11.41,0,0,1-.37,1.18L75.93,44.34a17.93,17.93,0,0,1-1.49,3.21,4.93,4.93,0,0,1-1.93,1.78,7.09,7.09,0,0,1-3.25.63,7.84,7.84,0,0,1-3-.44,1.56,1.56,0,0,1-1-1.57,1.54,1.54,0,0,1,.47-1.21,2,2,0,0,1,1.4-.42,2.55,2.55,0,0,1,.72.1,3.09,3.09,0,0,0,.74.1,2.78,2.78,0,0,0,1.23-.23,2.23,2.23,0,0,0,.81-.81A13.28,13.28,0,0,0,71.47,43.8Z" style="fill:#b38f81"/><path d="M105.67,40.68a14,14,0,0,1-3.18,1.91,8.84,8.84,0,0,1-3.45.64A6.51,6.51,0,0,1,96,42.54a5,5,0,0,1-2-1.86,4.83,4.83,0,0,1-.72-2.56A4.55,4.55,0,0,1,94.41,35a5.9,5.9,0,0,1,3.24-1.76l2.14-.45c1.14-.23,2.12-.45,2.93-.64s1.7-.43,2.65-.7a4.84,4.84,0,0,0-.72-2.64,3.27,3.27,0,0,0-2.65-.83,5.54,5.54,0,0,0-2.6.48,4.17,4.17,0,0,0-1.49,1.44c-.42.64-.71,1.07-.88,1.27a1.44,1.44,0,0,1-1.11.31,1.91,1.91,0,0,1-1.32-.49,1.6,1.6,0,0,1-.55-1.25,3.86,3.86,0,0,1,.84-2.33,6.17,6.17,0,0,1,2.64-1.86,11.88,11.88,0,0,1,4.47-.73,12.65,12.65,0,0,1,4.7.71,4.34,4.34,0,0,1,2.41,2.23,9.77,9.77,0,0,1,.71,4.05c0,1.06,0,2,0,2.71s0,1.56,0,2.47a9.17,9.17,0,0,0,.43,2.66,8.51,8.51,0,0,1,.42,1.79,1.67,1.67,0,0,1-.66,1.27,2.18,2.18,0,0,1-1.48.57,2,2,0,0,1-1.38-.65A10,10,0,0,1,105.67,40.68Zm-.3-6.56a23.52,23.52,0,0,1-2.9.77c-1.27.27-2.14.47-2.63.6a3.45,3.45,0,0,0-1.39.75,1.88,1.88,0,0,0-.67,1.55,2.3,2.3,0,0,0,.78,1.75,2.89,2.89,0,0,0,2,.72,5.38,5.38,0,0,0,2.49-.59,3.91,3.91,0,0,0,1.66-1.52,6.88,6.88,0,0,0,.62-3.38Z" style="fill:#b38f81"/><path d="M130.64,28.13V41.29a13.42,13.42,0,0,1-.49,3.88,6.11,6.11,0,0,1-1.54,2.69,6.47,6.47,0,0,1-2.78,1.58,15.25,15.25,0,0,1-4.28.52,12.35,12.35,0,0,1-4.18-.66,7.31,7.31,0,0,1-2.84-1.69,3.11,3.11,0,0,1-1-2.14,1.74,1.74,0,0,1,.56-1.35,1.93,1.93,0,0,1,1.36-.52,2.23,2.23,0,0,1,1.75.88q.36.45.75.9a4.19,4.19,0,0,0,.86.78,3.27,3.27,0,0,0,1.14.48,6.36,6.36,0,0,0,1.53.16,6.14,6.14,0,0,0,2.73-.49,2.74,2.74,0,0,0,1.36-1.37,5.58,5.58,0,0,0,.46-1.88c0-.67.07-1.75.1-3.23a7.56,7.56,0,0,1-2.42,2.22,6.58,6.58,0,0,1-3.26.77,6.93,6.93,0,0,1-4-1.16,7.47,7.47,0,0,1-2.61-3.26,11.93,11.93,0,0,1-.91-4.83,11.53,11.53,0,0,1,.55-3.69,7.77,7.77,0,0,1,1.59-2.77,6.69,6.69,0,0,1,2.37-1.7,7.51,7.51,0,0,1,3-.57,7,7,0,0,1,3.33.74,8.13,8.13,0,0,1,2.63,2.31v-.61a2.63,2.63,0,0,1,.58-1.83,1.9,1.9,0,0,1,1.49-.65,1.76,1.76,0,0,1,1.74.86A5.57,5.57,0,0,1,130.64,28.13ZM117.5,33.87A6.29,6.29,0,0,0,118.71,38a3.9,3.9,0,0,0,3.11,1.41,4,4,0,0,0,2.13-.61A4.39,4.39,0,0,0,125.59,37a6.38,6.38,0,0,0,.63-3A6.78,6.78,0,0,0,125,29.74a3.89,3.89,0,0,0-3.21-1.55,3.78,3.78,0,0,0-3.12,1.48A6.6,6.6,0,0,0,117.5,33.87Z" style="fill:#b38f81"/><path d="M145.83,40.68a14,14,0,0,1-3.18,1.91,8.87,8.87,0,0,1-3.45.64,6.51,6.51,0,0,1-3.06-.69,5,5,0,0,1-2-1.86,4.83,4.83,0,0,1-.72-2.56A4.55,4.55,0,0,1,134.57,35a5.9,5.9,0,0,1,3.24-1.76l2.14-.45c1.14-.23,2.12-.45,2.93-.64s1.7-.43,2.65-.7a4.84,4.84,0,0,0-.72-2.64,3.27,3.27,0,0,0-2.65-.83,5.54,5.54,0,0,0-2.6.48,4.17,4.17,0,0,0-1.49,1.44,13.5,13.5,0,0,1-.89,1.27c-.17.21-.53.31-1.1.31a1.91,1.91,0,0,1-1.32-.49,1.6,1.6,0,0,1-.55-1.25,3.86,3.86,0,0,1,.84-2.33,6.17,6.17,0,0,1,2.64-1.86,11.88,11.88,0,0,1,4.47-.73,12.65,12.65,0,0,1,4.7.71,4.34,4.34,0,0,1,2.41,2.23,9.77,9.77,0,0,1,.71,4.05c0,1.06,0,2,0,2.71s0,1.56,0,2.47a8.84,8.84,0,0,0,.43,2.66,8.51,8.51,0,0,1,.42,1.79,1.67,1.67,0,0,1-.66,1.27,2.18,2.18,0,0,1-1.48.57,2,2,0,0,1-1.38-.65A9.61,9.61,0,0,1,145.83,40.68Zm-.3-6.56a23.52,23.52,0,0,1-2.9.77c-1.27.27-2.14.47-2.63.6a3.55,3.55,0,0,0-1.4.75,1.91,1.91,0,0,0-.66,1.55,2.3,2.3,0,0,0,.78,1.75,2.89,2.89,0,0,0,2,.72,5.38,5.38,0,0,0,2.49-.59,3.91,3.91,0,0,0,1.66-1.52,6.88,6.88,0,0,0,.62-3.38Z" style="fill:#b38f81"/><path d="M156.87,22.7a2.44,2.44,0,0,1-1.62-.58,2.06,2.06,0,0,1-.67-1.65,2,2,0,0,1,.68-1.58,2.32,2.32,0,0,1,1.61-.63,2.38,2.38,0,0,1,1.56.57,2,2,0,0,1,.68,1.64,2.07,2.07,0,0,1-.67,1.64A2.3,2.3,0,0,1,156.87,22.7Zm2.24,4.68v13.1a3,3,0,0,1-.65,2.06,2.15,2.15,0,0,1-1.64.69,2,2,0,0,1-1.62-.71,3,3,0,0,1-.62-2v-13a2.86,2.86,0,0,1,.62-2,2.07,2.07,0,0,1,1.62-.69,2.15,2.15,0,0,1,1.64.69A2.63,2.63,0,0,1,159.11,27.38Z" style="fill:#b38f81"/><path d="M167.91,27.31v.55a8,8,0,0,1,2.61-2.32,7,7,0,0,1,3.26-.74,6.52,6.52,0,0,1,3.21.78,5.06,5.06,0,0,1,2.11,2.21,5.51,5.51,0,0,1,.58,1.8,18.32,18.32,0,0,1,.13,2.45v8.44a3.05,3.05,0,0,1-.62,2.06,2.09,2.09,0,0,1-1.62.69,2.13,2.13,0,0,1-1.65-.71,3,3,0,0,1-.63-2V32.92a7.46,7.46,0,0,0-.62-3.42,2.51,2.51,0,0,0-2.48-1.19A3.7,3.7,0,0,0,170,29a4.16,4.16,0,0,0-1.46,2,14.34,14.34,0,0,0-.33,3.79v5.68a2.91,2.91,0,0,1-.64,2.06,2.16,2.16,0,0,1-1.65.69,2.06,2.06,0,0,1-1.61-.71,3,3,0,0,1-.63-2V27.38a2.85,2.85,0,0,1,.56-1.94,2,2,0,0,1,1.54-.64,2.08,2.08,0,0,1,1.08.29,2.05,2.05,0,0,1,.78.84A3.06,3.06,0,0,1,167.91,27.31Z" style="fill:#b38f81"/></g></svg>