<svg xmlns="http://www.w3.org/2000/svg" width="140" height="50" viewBox="0 0 140 50"><g id="Layer_1" data-name="Layer 1"><path d="M58,13.49c2.16-2.77,7.77-4.32,14.33-4a1.49,1.49,0,0,1,1.42,1.65c-.19,1.65-.37,3.29-.55,4.94a1.51,1.51,0,0,1-1.66,1.33Q65.28,16.79,59,15.94A1.54,1.54,0,0,1,58,13.49Z" style="fill:#d4a86a"/><path d="M36.32,12c1.48-3.13,6.58-5.6,13-6.34a1.6,1.6,0,0,1,1.76,1.4L51.67,12a1.43,1.43,0,0,1-1.32,1.6q-6.26.4-12.5.64A1.62,1.62,0,0,1,36.32,12Z" style="fill:#d4a86a"/><path d="M79.92,40.09c2.48,2.5,8.26,3.35,14.71,1.81A1.62,1.62,0,0,0,95.84,40c-.38-1.59-.75-3.18-1.13-4.76a1.42,1.42,0,0,0-1.81-1Q86.78,36,80.65,37.54A1.53,1.53,0,0,0,79.92,40.09Z" style="fill:#bfb4a2"/><path d="M79.37,19.48c1.69-3.18,7-5.83,13.5-6.79A1.42,1.42,0,0,1,94.53,14c.08,1.64.16,3.29.23,4.94a1.6,1.6,0,0,1-1.43,1.64q-6.28.63-12.57,1.07A1.48,1.48,0,0,1,79.37,19.48Z" style="fill:#d4a86a"/><path d="M20.24,28.11c-6.76-.73-16.86-5.33-17.34-5.57a2.33,2.33,0,0,1-1.31-2.71,1.73,1.73,0,0,1,2.48-.94c3.47,1.64,13.49,5.6,18,5.3a2.28,2.28,0,0,1,2.29,1.9,1.76,1.76,0,0,1-1.64,2.12A13.7,13.7,0,0,1,20.24,28.11Z" style="fill:#ab8b80"/><path d="M137.51,35.56c-1.1.17-2-1-2-2.69s.89-3.14,2-3.31v-4c-1.1.17-2-1-2-2.69s.89-3.14,2-3.31v-4c-1.1.17-2-1-2-2.69s.89-3.14,2-3.31V7.78c0,.5-38.08,9-38.12,19,0,11,38.16,11,38.12,10.53Z" style="fill:#d4b99d"/><path d="M10.6,33.92a1.92,1.92,0,0,1,.11-.31h-.58Z" style="fill:#d49d50"/><path d="M135.52,34.65c-4.73.73-14.81-.18-23.37-2.42-5.5-1.43-10.36-3.36-12.76-5.42,2.22-2.2,6.51-4.61,11.48-6.92,8.81-4.08,19.68-8,24.65-8.8a3.63,3.63,0,0,0,3-3.47,2.49,2.49,0,0,0-3-2.53c-6,1-24,7-34.8,13.59-10.14-1.24-22.23-2.89-35.23-5.35-31.42-4.12-57,0-63.41,6.63,10.62,2,20,5.45,21.21,8.71,8.36-1.17,20.12-1.48,33.17-1.08C77,28.28,95.71,31,101.64,35.21h0c10.92,4.95,28,6.42,33.84,5.45a3.62,3.62,0,0,0,3-3.47A2.5,2.5,0,0,0,135.52,34.65Z" style="fill:#d49d50"/><path d="M32.42,18.68a4,4,0,0,1-4.5,4.09,5.09,5.09,0,0,1-4.5-5,4,4,0,0,1,4.5-4A5,5,0,0,1,32.42,18.68Z" style="fill:#ba8a46"/><path d="M31.42,18.09a3.58,3.58,0,0,1-4,3.63,4.53,4.53,0,0,1-4-4.41,3.55,3.55,0,0,1,4-3.59A4.49,4.49,0,0,1,31.42,18.09Z" style="fill:#fff"/><path d="M29.42,17.91a1.78,1.78,0,0,1-2,1.81,2.27,2.27,0,0,1-2-2.2,1.78,1.78,0,0,1,2-1.8A2.26,2.26,0,0,1,29.42,17.91Z" style="fill:#333"/><path d="M135.52,30.87l-.33,0c-3,.11-6,.2-9,.25a2.59,2.59,0,0,1-2.65-3,3.52,3.52,0,0,1,3.31-3.07c3-.06,6-.15,9-.27a2.51,2.51,0,0,1,2.63,2.91A3.64,3.64,0,0,1,135.52,30.87Z" style="fill:#d49d50"/><path d="M126.55,23.13a2.58,2.58,0,0,1-3-2.29,3.48,3.48,0,0,1,2.65-3.65c3-.72,6-1.47,9-2.26a2.53,2.53,0,0,1,3.29,2.15,3.61,3.61,0,0,1-2.63,3.72c-3,.78-6,1.54-9,2.27Z" style="fill:#d49d50"/><path d="M11.47,34.16a2.83,2.83,0,0,0,.09.37l-1-.61c0-.11.07-.21.11-.31l.77,0A1.81,1.81,0,0,0,11.47,34.16Z" style="fill:#e3ceaf"/><path d="M24.42,30.42c0,.72-1.26,1.12-3.16,1.34,1.36-.65,2.16-1.46,2.16-2.4a1.45,1.45,0,0,0-.07-.45C24.35,29.69,24.42,30.27,24.42,30.42Z" style="fill:#e3ceaf"/><path d="M101.65,35.21C91.32,38,78.9,40.9,65.49,43.7c-20.83,3.59-39.32-1.08-51.17-7.57-1-.51-1.88-1.05-2.76-1.6a2.83,2.83,0,0,1-.09-.37,1.81,1.81,0,0,1,0-.57c4.07-.15,7.62-.8,9.78-1.83h0c1.9-.22,3.16-.62,3.16-1.34,0-.15-.07-.73-1.07-1.51a1.05,1.05,0,0,0-.06-.24c1.4-.19,2.89-.37,4.47-.52a242.07,242.07,0,0,1,28.7-.56C77,28.28,95.71,31,101.65,35.21Z" style="fill:#e3ceaf"/><path d="M14.73,32.08c2.39,0,4.73-.1,6.52-.32-2.16,1-5.71,1.68-9.78,1.83a1.7,1.7,0,0,1,1.69-1.48Z" style="fill:#c9b79b"/><path d="M11.45,34.86a2.38,2.38,0,0,1-2-2,1.7,1.7,0,0,1,1.68-2l1.58,0c5-.07,9.68-.24,9.68-1.63,0-.5-.55-3.82-18.93-6.49a2.4,2.4,0,0,1-2-2.31,1.67,1.67,0,0,1,2-1.69C19.31,21.09,26.43,24,26.42,29.62c0,4.84-5.23,5.12-13.11,5.24l-1.57,0A1.42,1.42,0,0,1,11.45,34.86Z" style="fill:#d4b99d"/></g></svg>