<svg xmlns="http://www.w3.org/2000/svg" width="140" height="50" viewBox="0 0 140 50"><g id="Layer_1" data-name="Layer 1"><path d="M58,10.24C60.14,7.34,65.76,5.52,72.31,6a1.53,1.53,0,0,1,1.42,1.68c-.18,1.64-.37,3.28-.55,4.93a1.49,1.49,0,0,1-1.66,1.31q-6.26-.7-12.52-1.25A1.48,1.48,0,0,1,58,10.24Z" style="fill:#d4a86a"/><path d="M36.31,11c1.48-3.35,6.58-6.62,13-8a1.44,1.44,0,0,1,1.76,1.24c.18,1.63.36,3.27.55,4.9a1.59,1.59,0,0,1-1.33,1.72q-6.26,1-12.5,2.12A1.41,1.41,0,0,1,36.31,11Z" style="fill:#d4a86a"/><path d="M79.91,36.73c2.48,2.61,8.26,3.77,14.71,3a1.42,1.42,0,0,0,1.21-1.76c-.38-1.63-.75-3.26-1.13-4.89a1.59,1.59,0,0,0-1.8-1.22q-6.14,1.11-12.26,2.39A1.49,1.49,0,0,0,79.91,36.73Z" style="fill:#bfb4a2"/><path d="M79.36,16.09c1.69-3.1,7-5.51,13.5-5.79a1.6,1.6,0,0,1,1.66,1.52c.08,1.65.16,3.31.23,5a1.4,1.4,0,0,1-1.43,1.48q-6.28,0-12.57.09A1.54,1.54,0,0,1,79.36,16.09Z" style="fill:#d4a86a"/><path d="M20.23,30.2c-6.76.74-16.86-.85-17.34-.91A1.71,1.71,0,0,1,1.58,27a2.35,2.35,0,0,1,2.48-1.71c3.47.51,13.49,1.79,18,.58a1.77,1.77,0,0,1,2.3,1.39,2.27,2.27,0,0,1-1.65,2.48A15.84,15.84,0,0,1,20.23,30.2Z" style="fill:#ab8b80"/><path d="M137.5,42.45c-1.1-.18-2-1.65-2-3.31s.89-2.87,2-2.69v-4c-1.1-.18-2-1.65-2-3.31s.89-2.87,2-2.69v-4c-1.1-.18-2-1.65-2-3.31s.89-2.87,2-2.69V14.67c0-.5-38.08-.43-38.11,10.53,0,10,38.15,18.53,38.11,19Z" style="fill:#d4b99d"/><path d="M10.59,38.43a2.67,2.67,0,0,1,.11-.34l-.58.17Z" style="fill:#d49d50"/><path d="M135.51,40.92c-4.73-.74-14.81-4.37-23.37-8.21-5.5-2.5-10.36-5.13-12.75-7.51,2.21-1.9,6.5-3.69,11.47-5.07,8.81-2.5,19.68-3.55,24.65-2.77a2.5,2.5,0,0,0,3-2.54,3.61,3.61,0,0,0-3-3.46c-6-1-23.95.6-34.8,5.89C90.58,14.58,78.48,12,65.48,9.79,34.06,6.19,8.49,18.37,2.07,27c10.62-1.39,20,.09,21.21,3.1,8.36-3,20.12-5.26,33.17-5.66C77,23.73,95.7,28.8,101.63,33.91h0c10.92,6.32,28,12,33.84,13a2.5,2.5,0,0,0,3-2.54A3.62,3.62,0,0,0,135.51,40.92Z" style="fill:#d49d50"/><path d="M32.41,18.33a5.05,5.05,0,0,1-4.5,4.91,4,4,0,0,1-4.5-4,5.09,5.09,0,0,1,4.5-5A4,4,0,0,1,32.41,18.33Z" style="fill:#ba8a46"/><path d="M31.41,17.91a4.5,4.5,0,0,1-4,4.38,3.56,3.56,0,0,1-4-3.59,4.52,4.52,0,0,1,4-4.41A3.57,3.57,0,0,1,31.41,17.91Z" style="fill:#fff"/><path d="M29.41,18.1a2.26,2.26,0,0,1-2,2.19,1.79,1.79,0,0,1-2-1.8,2.25,2.25,0,0,1,2-2.2A1.78,1.78,0,0,1,29.41,18.1Z" style="fill:#333"/><path d="M135.51,37.14a2.84,2.84,0,0,1-.76-.1c-2.95-.77-5.95-1.53-8.91-2.25A3,3,0,1,1,127.25,29c3,.73,6,1.49,9,2.28a3,3,0,0,1-.76,5.9Z" style="fill:#d49d50"/><path d="M135.51,27.14h-.12c-2.93-.12-5.93-.21-8.9-.26a3,3,0,0,1,.11-6c3,.06,6.05.15,9,.26a3,3,0,0,1-.12,6Z" style="fill:#d49d50"/><path d="M11.46,38.43a2.25,2.25,0,0,0,.09.35l-1-.35c0-.12.07-.23.1-.34.26-.07.51-.14.77-.23A1.82,1.82,0,0,0,11.46,38.43Z" style="fill:#e3ceaf"/><path d="M24.41,31.59c0,.72-1.26,1.38-3.16,2,1.36-1,2.16-1.93,2.16-2.87a1.35,1.35,0,0,0-.07-.44C24.34,30.88,24.41,31.44,24.41,31.59Z" style="fill:#e3ceaf"/><path d="M101.64,33.92a352.07,352.07,0,0,0-36.16,6.24c-20.83,4-39.32,2.91-51.17-.5-1-.27-1.88-.57-2.76-.88a2.25,2.25,0,0,1-.09-.35,1.82,1.82,0,0,1,0-.57,37.62,37.62,0,0,0,9.78-4.24h0c1.9-.65,3.16-1.31,3.16-2,0-.15-.07-.71-1.07-1.28a1,1,0,0,0-.06-.23c1.4-.49,2.89-1,4.47-1.43a119.33,119.33,0,0,1,28.7-4.23C77,23.73,95.7,28.8,101.64,33.92Z" style="fill:#e3ceaf"/><path d="M14.72,35.5c2.39-.65,4.73-1.26,6.52-1.88a37.62,37.62,0,0,1-9.78,4.24,2.38,2.38,0,0,1,1.69-1.92Z" style="fill:#c9b79b"/><path d="M11.44,39.14a1.7,1.7,0,0,1-2-1.44,2.34,2.34,0,0,1,1.68-2.5l1.58-.44c5-1.38,9.68-2.57,9.68-4,0-.31-.55-4.17-18.93-1.51a1.66,1.66,0,0,1-2-1.69,2.42,2.42,0,0,1,2-2.31c15.82-2.37,22.94-.38,22.93,5.1,0,4.85-5.23,6.09-13.11,8.26l-1.57.43A1.5,1.5,0,0,1,11.44,39.14Z" style="fill:#d4b99d"/></g></svg>