<svg xmlns="http://www.w3.org/2000/svg" width="140" height="50" viewBox="0 0 140 50"><g id="Layer_1" data-name="Layer 1"><path d="M58,12.79C60.18,10,65.78,8.28,72.31,8.68a1.51,1.51,0,0,1,1.42,1.66l-.55,4.93a1.5,1.5,0,0,1-1.66,1.33L59.05,15.21A1.51,1.51,0,0,1,58,12.79Z" style="fill:#d4a86a"/><path d="M36.4,12.46c1.48-3.24,6.57-6.11,13-7.15a1.52,1.52,0,0,1,1.75,1.32l.55,4.93a1.5,1.5,0,0,1-1.33,1.65L37.93,14.6A1.51,1.51,0,0,1,36.4,12.46Z" style="fill:#d4a86a"/><path d="M79.89,39.33c2.48,2.56,8.24,3.57,14.67,2.39a1.5,1.5,0,0,0,1.21-1.82l-1.13-4.83A1.49,1.49,0,0,0,92.84,34L80.62,36.81A1.51,1.51,0,0,0,79.89,39.33Z" style="fill:#bfb4a2"/><path d="M79.34,18.71c1.69-3.14,7-5.67,13.47-6.29a1.52,1.52,0,0,1,1.66,1.43l.22,5a1.5,1.5,0,0,1-1.43,1.57l-12.53.57A1.5,1.5,0,0,1,79.34,18.71Z" style="fill:#d4a86a"/><path d="M20.31,30.08c-6.77,0-16.91-3.09-17.4-3.24A2,2,0,1,1,4.09,23C7.58,24.09,17.63,26.71,22.17,26a2,2,0,1,1,.66,3.94A15.16,15.16,0,0,1,20.31,30.08Z" style="fill:#ab8b80"/><path d="M137.5,39.93c-1.1,0-2-1.34-2-3s.9-3,2-3v-4c-1.1,0-2-1.34-2-3s.9-3,2-3v-4c-1.1,0-2-1.34-2-3s.9-3,2-3V12.15S99.32,16.46,99.32,26.93,137.5,41.71,137.5,41.71Z" style="fill:#d4b99d"/><path d="M10.64,37.1c0-.11.07-.22.11-.32l-.58.09Z" style="fill:#d49d50"/><path d="M135.5,38.71c-4.76,0-14.87-2.27-23.43-5.31-5.5-2-10.36-4.25-12.75-6.47,2.21-2.05,6.5-4.15,11.47-6,8.81-3.29,19.71-5.79,24.71-5.79a3,3,0,0,0,0-6c-6.08,0-24,3.81-34.86,9.74-10.12-1.95-22.18-4.08-35.14-6.4C34.21,8.63,8.56,16.79,2.08,24.4c10.69.29,20.09,2.77,21.29,5.9,8.37-2.08,20.11-3.37,33.13-3.37,20.48,0,39.13,3.9,45.07,8.56h0c10.9,5.64,28,9.23,33.9,9.23a3,3,0,0,0,0-6Z" style="fill:#d49d50"/><circle cx="28" cy="19.43" r="4.5" style="fill:#ba8a46"/><circle cx="27.5" cy="18.93" r="4" style="fill:#fff"/><circle cx="27.5" cy="18.93" r="2" style="fill:#333"/><path d="M135.5,34.93l-.33,0-9-1a3,3,0,0,1,.66-6l9,1a3,3,0,0,1-.33,6Z" style="fill:#d49d50"/><path d="M126.5,25.93a3,3,0,0,1-.33-6l9-1a3,3,0,0,1,.66,6l-9,1Z" style="fill:#d49d50"/><path d="M11.52,37.22a2.37,2.37,0,0,0,.09.36l-1-.48c0-.11.07-.22.11-.32l.77-.13A1.82,1.82,0,0,0,11.52,37.22Z" style="fill:#e3ceaf"/><path d="M24.5,31.93c0,.72-1.26,1.25-3.17,1.69,1.37-.81,2.17-1.7,2.17-2.64a1.35,1.35,0,0,0-.07-.44C24.43,31.21,24.5,31.78,24.5,31.93Z" style="fill:#e3ceaf"/><path d="M101.57,35.49c-10.32,2-22.7,4.42-36.07,7.37-20.76,3.78-39.23.91-51.12-4-1-.39-1.89-.81-2.77-1.24a2.37,2.37,0,0,1-.09-.36,1.82,1.82,0,0,1,0-.57,31.3,31.3,0,0,0,9.8-3h0c1.91-.44,3.17-1,3.17-1.69,0-.15-.07-.72-1.07-1.39a1.05,1.05,0,0,0-.06-.24c1.4-.34,2.89-.67,4.47-1a157.61,157.61,0,0,1,28.66-2.4C77,26.93,95.63,30.83,101.57,35.49Z" style="fill:#e3ceaf"/><path d="M14.79,34.72c2.4-.35,4.74-.68,6.53-1.1a31.3,31.3,0,0,1-9.8,3A2,2,0,0,1,13.21,35Z" style="fill:#c9b79b"/><path d="M11.5,37.93a2,2,0,0,1-.29-4l1.58-.23c5-.72,9.71-1.4,9.71-2.79,0-.41-.53-4-19-4a2,2,0,0,1,0-4c15.91,0,23,2.47,23,8,0,4.85-5.23,5.61-13.14,6.75l-1.57.23Z" style="fill:#d4b99d"/></g></svg>