<svg xmlns="http://www.w3.org/2000/svg" xmlns:xlink="http://www.w3.org/1999/xlink" width="1600" height="900" viewBox="0 0 1600 900"><defs><linearGradient id="linear-gradient" x1="800" y1="900" x2="800" y2="820" gradientUnits="userSpaceOnUse"><stop offset="0" stop-color="#1e79a6"/><stop offset="1" stop-color="#3aade6"/></linearGradient></defs><g id="Layer_7" data-name="Layer 7"><rect y="820" width="1600" height="80" style="fill:url(#linear-gradient)"/><path d="M1600,90H1473a30.25,30.25,0,0,1-26.35,45.11H1225.12A66,66,0,0,1,1123.42,90H973a30.25,30.25,0,0,1-26.35,45.11H725.12A66,66,0,0,1,623.42,90H473a30.25,30.25,0,0,1-26.35,45.11H225.12A66,66,0,0,1,123.42,90H0V0H1600Z" style="fill:#4d4541"/><path d="M1600,80H1455.85l8.43,14.86A20.24,20.24,0,0,1,1446.63,125H1222.1l-2.52,1.67a56,56,0,0,1-86.27-38.25L1132,80H955.85l8.43,14.86A20.24,20.24,0,0,1,946.63,125H722.1l-2.52,1.67a56,56,0,0,1-86.27-38.25L632,80H455.85l8.43,14.86A20.24,20.24,0,0,1,446.63,125H222.1l-2.52,1.67a56,56,0,0,1-86.27-38.25L132,80H0v9.93H123.42A66,66,0,0,0,225.12,135H446.63A30.23,30.23,0,0,0,473,89.93H623.42A66,66,0,0,0,725.12,135H946.63A30.23,30.23,0,0,0,973,89.93h150.44A66,66,0,0,0,1225.12,135h221.51A30.23,30.23,0,0,0,1473,89.93h127Z" style="fill:#82665a"/></g></svg>