<svg xmlns="http://www.w3.org/2000/svg" xmlns:xlink="http://www.w3.org/1999/xlink" width="1600" height="900" viewBox="0 0 1600 900"><defs><mask id="mask" x="786.97" y="219.89" width="150.44" height="132.1" maskUnits="userSpaceOnUse"><path d="M920.44,279.37c0,21.73-19.45,28.29-43.51,30.41s-43.6-8.6-43.64-24.49c0-15.08,19.42-35,43.49-43.69C898.79,233.26,920.4,259.24,920.44,279.37Z" style="fill:#fff"/></mask><mask id="mask-2" x="632.86" y="219.59" width="150.44" height="132.1" maskUnits="userSpaceOnUse"><path d="M766.32,287.66c0,16-19.56,24-43.63,21.84s-43.55-12.36-43.51-34.23c.05-22.67,19.6-42.94,43.66-34.19C744.86,249.45,766.36,274.83,766.32,287.66Z" style="fill:#fff"/></mask></defs><g id="Layer_8" data-name="Layer 8"><rect width="1600" height="900" style="opacity:0.8"/><path d="M935.91,237.73c4.3,3.56,10.25,2.87,13.88-1.76,22.54-28.73,18.4-84.67,15.38-125.51,0,0-.13-1.76-.13-1.84-.72-7.91-.44-24.92-2.44-30.92-6,1-21.16,5.46-28.4,8.53l-.19.09c-8.13,3.66-17.57,7.15-26.7,10.52-26.81,9.9-52.13,19.25-62.78,37.46-3.12,5.33-2.26,12.57,2,16.69l88.74,86.15A7.32,7.32,0,0,0,935.91,237.73Z" style="fill:#787878"/><path d="M946.78,117.7c2.3,31.11,5.79,75-10.11,95.23l-71.88-69.78C874.45,126.64,909,119,933.26,108c3.47-1.47,9.34-4.3,13.34-5.3C946.6,106.7,946.47,114.18,946.78,117.7Z" style="fill:#d993a7"/><path d="M947.18,123.16l-1.92.84c-23,10.36-55.09,17.8-66.68,32.54l-13.79-13.39C874.45,126.64,909,119,933.26,108c3.47-1.47,9.34-4.3,13.34-5.3,0,4-.13,11.48.18,15C946.91,119.48,947.05,121.3,947.18,123.16Z" style="fill:#cc8599"/><path d="M651.33,237.73c-4.31,3.56-10.26,2.87-13.89-1.76C614.9,207.24,619,151.3,622.06,110.46c0,0,.13-1.76.14-1.84.71-7.91.43-24.92,2.43-30.92,6,1,21.17,5.46,28.4,8.53l.2.09c8.12,3.66,17.56,7.15,26.69,10.52,26.81,9.9,52.13,19.25,62.78,37.46,3.12,5.33,2.26,12.57-2,16.69L652,237.14C651.77,237.35,651.55,237.55,651.33,237.73Z" style="fill:#787878"/><path d="M640.45,117.7c-2.3,31.11-5.79,75,10.11,95.23l71.88-69.78C712.78,126.64,678.26,119,654,108c-3.46-1.47-9.34-4.3-13.34-5.3C640.63,106.7,640.76,114.18,640.45,117.7Z" style="fill:#d993a7"/><path d="M666,124c-3.46-1.47-9.34-4.3-13.34-5.3,0,4,.13,11.48-.18,15-1.72,23.26-4.11,53.65,1.45,76l-3.34,3.25c-15.9-20.27-12.41-64.12-10.11-95.23.31-3.52.18-11,.18-15,4,1,9.88,3.83,13.34,5.3,24.29,11,58.81,18.64,68.47,35.15l-3,2.9C704.48,137.59,682.77,131.58,666,124Z" style="fill:#cc8599"/><path d="M722.44,143.15l-3,2.9c-15-8.46-36.68-14.47-53.48-22.05-3.46-1.47-9.34-4.3-13.34-5.3,0,4,.13,11.48-.18,15-1.72,23.26-4.11,53.65,1.45,76l-3.34,3.25c-15.9-20.27-12.41-64.12-10.11-95.23.31-3.52.18-11,.18-15,4,1,9.88,3.83,13.34,5.3C678.26,119,712.78,126.64,722.44,143.15Z" style="fill:#cc8599"/><path d="M875.57,138.65a178.46,178.46,0,0,0-31.64-12.36,7.39,7.39,0,0,0-.37-1.09c-3.18-7.65-3.76-25.74-7.44-40.13-1.2,10-14,27.39-17.51,31.88-2.22-3.52-5.29-12.14-7.37-21.49-.59,4-7.63,13.6-13.8,22.27-3.28,4.88-4.56-8.64-15.05-29-6.82-7.54,5.13,10.61.81,28.77-10.62-7.45-3.91-10.69-13.16-23.34,2.87,6.44-.26,20.66-4.76,26.68l-.58.07c-6.58-6.32-5.72-27.53-13.64-54.14-2.85,12.87.81,42.9-7.37,58.38a180.46,180.46,0,0,0-37.4,14.31c-58.17,30.12-97.86,87.68-98,141.31-.15,77.26,81.91,117.12,183.24,117.31S975.11,358.76,975.26,281.5C975.36,227.17,934.86,168.66,875.57,138.65Z" style="fill:#f9e6c5"/><path d="M940.19,267.7c-.12,61.81-65.89,93.44-147,93.29s-146.71-32-146.59-93.85,66-130.14,147-130S940.31,205.89,940.19,267.7Z" style="fill:#787878"/><path d="M708.07,387.5c25,7,53.42,10.55,83.5,10.61,101.32.19,183.54-39.35,183.69-116.61.1-51.42-36.2-106.59-90.36-137.8,33.79,33.69,54.7,78.15,54.62,120.27-.16,83.35-82.39,126-183.71,125.82C739.54,389.75,723.09,389.73,708.07,387.5Z" style="opacity:0.11"/><path d="M800.23,318.9l0,.08a.3.3,0,0,1,0-.08Z" style="fill:#6e6e6e"/><path d="M829.76,358.53c-5.59,14.35-16.56,28.64-29.15,28.62s-23.63-14.55-29.14-29c14.49-4.27,25.43-13.6,28.7-25C803.46,344.79,814.79,354.34,829.76,358.53Z" style="fill:#6e6e6e"/><path d="M829.76,358.53c-5.59,14.35-16.56,28.64-29.15,28.62s-23.63-14.55-29.14-29c14.49-4.27,25.43-13.6,28.7-25C803.46,344.79,814.79,354.34,829.76,358.53Z" style="fill:#a64646"/><path d="M800.71,334.76c-.19-.54-.39-1.09-.54-1.64-.07.25-.17.5-.25.75C800.17,334.17,800.44,334.47,800.71,334.76Z" style="fill:#ba4e4e"/><path d="M823.62,356.41C816.87,368,806.44,378,794.76,378c-6,0-11.75-2.69-16.77-6.89,5.89,9.09,13.85,16.06,22.62,16.08,12.59,0,23.56-14.27,29.15-28.62A56.88,56.88,0,0,1,823.62,356.41Z" style="fill:#ba4e4e"/><polygon points="815.45 366.69 810.3 385.69 820.6 385.69 815.45 366.69" style="fill:#e6e6e6"/><polygon points="785.45 366.69 780.3 385.69 790.6 385.69 785.45 366.69" style="fill:#e6e6e6"/><polygon points="782.95 366.69 789.46 342.69 776.45 342.69 782.95 366.69" style="fill:#e6e6e6"/><polygon points="817.97 366.69 824.75 341.69 811.19 341.69 817.97 366.69" style="fill:#e6e6e6"/><path d="M846.81,291.47c-22.89-.05-42,11.72-46.58,27.43l0,.08a.3.3,0,0,1,0-.08c-4.49-15.73-23.58-27.57-46.48-27.61-26.26-.05-47.58,15.43-47.62,34.58s21.23,34.72,47.49,34.77a65.64,65.64,0,0,0,10.42-.82c6.29,17.18,19.66,35,36.63,35s30.32-17.63,36.71-34.73a65.27,65.27,0,0,0,9.37.7c26.26.05,47.58-15.43,47.62-34.59S873.08,291.52,846.81,291.47Zm-46.2,95.68c-12.67,0-23.63-14.55-29.14-29,14.49-4.27,25.43-13.6,28.7-25,3.29,11.67,14.62,21.22,29.59,25.41C824.17,372.88,813.2,387.17,800.61,387.15Z" style="fill:#6e6e6e"/><g style="mask:url(#mask)"><ellipse cx="862.19" cy="285.94" rx="66.05" ry="75.22" transform="translate(574.6 1147.58) rotate(-89.89)" style="fill:#fff"/><path d="M911.78,295.23c-4.63,16.22-18.17,27.95-34.12,27.92s-29.45-11.81-34-28A44.85,44.85,0,0,1,842,282.83c0-22.23,16.09-40.22,35.85-40.18s35.74,18.09,35.7,40.31A44.79,44.79,0,0,1,911.78,295.23Z" style="fill:#8cc9ff"/><path d="M885,289.88c-.13,13.12-2.27,24-5.25,25.6-3.21,1.69-6.26-8.09-7.09-22.23-.06-.93-.11-1.88-.14-2.85-.57-15.66,1.75-29.81,5.17-31.63s6.67,9.43,7.23,25.08C885,285.9,885,287.92,885,289.88Z" style="fill:#516070"/></g><g style="mask:url(#mask-2)"><ellipse cx="708.08" cy="285.64" rx="66.05" ry="75.22" transform="translate(421.08 993.17) rotate(-89.89)" style="fill:#fff"/><path d="M757.67,295.93c-4.64,16.22-18.17,27.95-34.13,27.92s-29.44-11.8-34-28a45.17,45.17,0,0,1-1.67-12.27c0-22.23,16.1-40.23,35.85-40.19s35.75,18.1,35.7,40.32A44.34,44.34,0,0,1,757.67,295.93Z" style="fill:#8cc9ff"/><path d="M730.88,290.59c-.13,13.12-2.27,24-5.24,25.59-3.22,1.69-6.27-8.08-7.1-22.23-.06-.93-.1-1.88-.14-2.85-.57-15.65,1.75-29.81,5.17-31.61s6.67,9.41,7.23,25.07C730.88,286.6,730.9,288.62,730.88,290.59Z" style="fill:#516070"/></g><path d="M816.27,308.74c0,5.83-7,12.38-15.62,12.36s-15.58-6.59-15.57-12.42,7-8.7,15.61-8.68S816.28,302.92,816.27,308.74Z" style="fill:#ad9191"/><path d="M808.84,307.45c0,4.07-4.9,8.66-10.93,8.64S787,311.48,787,307.4s4.9-6.09,10.93-6.08S808.85,303.37,808.84,307.45Z" style="fill:#bf9f9f"/><path d="M1048.91,305.36c-25.91,2.12-52.55-2.16-78.54-.62a4.83,4.83,0,0,1-5.09-4.22,4.36,4.36,0,0,1,4.07-4.9c26-1.54,52.62,2.75,78.53.63a4.69,4.69,0,0,1,5.08,4.11A4.46,4.46,0,0,1,1048.91,305.36Z" style="fill:#998080"/><path d="M1044.19,349.37a3.9,3.9,0,0,1-1.07-.06c-26.68-4.69-54-15-80.59-18.82a4.66,4.66,0,0,1-4-5.14,4.45,4.45,0,0,1,5.11-3.91c26.63,4.13,54,14.5,80.6,18.87a4.79,4.79,0,0,1,4,5.23A4.33,4.33,0,0,1,1044.19,349.37Z" style="fill:#998080"/><path d="M969.83,279.48a4.74,4.74,0,0,1-4.84-3.09,4.52,4.52,0,0,1,2.78-5.82c25.21-8.37,51.16-10.17,76.48-17.64a4.86,4.86,0,0,1,5.89,3,4.41,4.41,0,0,1-2.79,5.74c-25.28,7.78-51.24,9.57-76.49,17.59A4.71,4.71,0,0,1,969.83,279.48Z" style="fill:#998080"/><path d="M616.05,315.05c-30.58-1.56-61.72,2.3-92.21-.2a4.52,4.52,0,0,1-4.09-5,4.67,4.67,0,0,1,5-4.14c30.49,2.5,61.63-1.35,92.21.2a4.35,4.35,0,0,1,4.11,4.84A4.86,4.86,0,0,1,616.05,315.05Z" style="fill:#998080"/><path d="M532.61,359.13a4.33,4.33,0,0,1-4.11-3.94,4.82,4.82,0,0,1,4.15-5.15c31.21-4.41,63-14.36,94.11-18.07a4.49,4.49,0,0,1,5,4.07,4.66,4.66,0,0,1-4.14,5c-31.11,3.45-62.88,13.38-94.11,18A4.67,4.67,0,0,1,532.61,359.13Z" style="fill:#998080"/><path d="M620,290a4.07,4.07,0,0,1-.89-.16c-29.86-8.46-60.37-10.67-90.31-18.42a4.38,4.38,0,0,1-3-5.59,4.86,4.86,0,0,1,5.77-3.27c30,7.54,60.47,9.78,90.3,18.48a4.53,4.53,0,0,1,3,5.71A4.68,4.68,0,0,1,620,290Z" style="fill:#998080"/><rect x="580.5" y="100" width="440" height="1000" rx="50" transform="translate(1400.5 -200.5) rotate(90)" style="fill:#82665a"/><rect x="310.5" y="390" width="980" height="420" rx="40" style="fill:#4d4541"/><path d="M305.5,605a5,5,0,0,1-5-5V430a50.06,50.06,0,0,1,50-50H800a5,5,0,0,1,0,10H350.5a40,40,0,0,0-40,40V600A5,5,0,0,1,305.5,605Z" style="fill:#b38f81"/></g></svg>