<svg xmlns="http://www.w3.org/2000/svg" xmlns:xlink="http://www.w3.org/1999/xlink" width="1600" height="900" viewBox="0 0 1600 900"><defs><mask id="mask" x="749.32" y="177.53" width="188.05" height="165.12" maskUnits="userSpaceOnUse"><path d="M814.1,270.91c-.06,26.91,24.31,37.31,54.39,37.37S923,293.45,923,266.53s-24.28-55.66-54.36-55.72C841.16,210.76,814.14,247.4,814.1,270.91Z" style="fill:#fff"/></mask><mask id="mask-2" x="608.2" y="185.04" width="188.05" height="165.12" maskUnits="userSpaceOnUse"><path d="M775,271.75c0,26.91-24.46,37.22-54.54,37.16s-54.43-15-54.38-42,24.49-55.56,54.57-55.51C748.2,211.5,775.08,248.24,775,271.75Z" style="fill:#fff"/></mask></defs><g id="Layer_7" data-name="Layer 7"><rect width="1600" height="900" style="opacity:0.8"/><path d="M923,272.1c2.49,5,8.21,6.79,13.4,4,32.28-17.08,51.25-69.87,65.11-108.41,0,0,.59-1.66.62-1.73,2.57-7.52,2.27-15.12-.85-21.4A20.44,20.44,0,0,0,983,133h-.21c-8.91,0-18.95-.61-28.66-1.25-28.52-1.85-55.46-3.61-72.59,8.69-5,3.6-7.18,10.57-5,16.05l46,114.8Z" style="fill:#787878"/><path d="M981.71,166.87c-10.55,29.35-25.2,70.83-48,82.88l-37.29-93c15.55-11.16,50.21-4.14,76.86-4.27C980,152.62,984.3,159.29,981.71,166.87Z" style="fill:#d993a7"/><path d="M981.71,166.87,980,171.54a9,9,0,0,0-6.72-3c-24,.12-54.39-5.54-71.59,1.42q-2.62-6.57-5.27-13.15c15.55-11.16,50.21-4.14,76.86-4.27C980,152.62,984.3,159.29,981.71,166.87Z" style="fill:#cc8599"/><path d="M664.08,271.1c-2.48,5-8.2,6.79-13.4,4-32.27-17.08-51.25-69.87-65.1-108.41,0,0-.6-1.66-.62-1.73-2.57-7.52-2.27-15.12.85-21.4A20.43,20.43,0,0,1,604,132h.21c8.91,0,19-.61,28.67-1.25,28.52-1.85,55.46-3.61,72.59,8.69,5,3.6,7.18,10.57,5,16.05l-46,114.8Q664.28,270.71,664.08,271.1Z" style="fill:#787878"/><path d="M605.32,165.87c10.56,29.35,25.21,70.83,48,82.88q18.65-46.49,37.28-93c-15.54-11.16-50.2-4.14-76.85-4.27C607,151.62,602.73,158.29,605.32,165.87Z" style="fill:#d993a7"/><path d="M690.58,155.77q-2.64,6.57-5.27,13.15c-17.2-7-47.62-1.3-71.58-1.42a9.05,9.05,0,0,0-6.73,3l-1.68-4.67c-2.59-7.58,1.67-14.25,8.41-14.37C640.38,151.63,675,144.61,690.58,155.77Z" style="fill:#cc8599"/><path d="M975.66,287.81c.14-71.11-69.29-149.38-159.34-161.55-.42-3.62-2.58-7.92-3.93-10.62C807.45,105,795.05,98.53,790,101.37c-2.77,1.88-3.15,9.07,3.31,16.43-.44-.33-.88-.67-1.31-1-6.49-5.29-14.62-4.8-16.21-1.85-1.45,2.69,2,7.35,8.74,9.87-97.65,4.13-175.7,87.07-175.84,162.3-.15,77.26,81.92,117.12,183.24,117.32S975.51,365.07,975.66,287.81Z" style="fill:#f9e6c5"/><path d="M940.59,274c-.12,61.81-65.89,93.44-147,93.28s-146.71-32-146.6-93.85,66-130.13,147-130S940.71,212.2,940.59,274Z" style="fill:#787878"/><path d="M708.48,393.81c25,7,53.41,10.55,83.49,10.61,101.33.19,183.54-39.35,183.69-116.61.1-51.43-36.19-106.6-90.36-137.8,33.79,33.69,54.7,78.14,54.62,120.27-.16,83.34-82.38,126-183.71,125.81C739.94,396.06,723.49,396,708.48,393.81Z" style="opacity:0.11"/><path d="M795.62,325h-.06l0,.08Z" style="fill:#737373"/><path d="M795.34,338.21c.23.27.47.53.72.79-.18-.48-.35-1-.5-1.45C795.5,337.77,795.41,338,795.34,338.21Z" style="fill:#737373"/><ellipse cx="753.56" cy="331" rx="41.94" ry="30" style="fill:#6e6e6e"/><ellipse cx="837.44" cy="331" rx="41.94" ry="30" style="fill:#6e6e6e"/><g style="mask:url(#mask)"><ellipse cx="843.35" cy="260.09" rx="82.56" ry="94.03" transform="translate(581.64 1102.94) rotate(-89.89)" style="fill:#fff"/><path d="M918.67,265.54c-3.71,22.29-22.42,40.29-47.54,43.22s-49-10.14-59.76-30.73A53,53,0,0,1,806,262.12c-4.84-29.38,16.44-56.13,47.54-59.75s60.26,17.27,65.11,46.64A49.83,49.83,0,0,1,918.67,265.54Z" style="fill:#8cc9ff"/><path d="M910.92,259.74c5.11,3.19,7.48,8.7,5.71,13.83-6.38,18.47-23.48,32.62-45.5,35.19-22.44,2.61-43.86-7.53-55.87-24.41a9.75,9.75,0,0,1,.48-12.3l.17-.2c5.59-6.48,17.13-5.91,22.36.77A37.46,37.46,0,0,0,871.84,287a33.44,33.44,0,0,0,28.52-24.13c1.11-3.89,6.55-5.59,10.39-3.22Z" style="fill:#a6e0ff"/><path d="M910,252.48c-1.18,24.18-20.18,44.26-46.58,47.18-28.51,3.11-55.57-14.91-63-41-.48-1.72-.88-3.46-1.2-5.26-5-28.85,15.49-55,45.89-58.29s59.13,17.37,64.18,46.23A50,50,0,0,1,910,252.48Z" style="fill:#516070"/><ellipse cx="915.73" cy="255.41" rx="15" ry="22.5" style="fill:#fff"/><ellipse cx="847.83" cy="239.3" rx="19.36" ry="17.36" style="fill:#fff"/><ellipse cx="870.22" cy="248.71" rx="5.51" ry="4.48" style="fill:#fff"/></g><g style="mask:url(#mask-2)"><ellipse cx="702.23" cy="267.6" rx="82.56" ry="94.03" transform="translate(433.28 969.31) rotate(-89.89)" style="fill:#fff"/><path d="M780.94,265.32c-3.69,22.91-22.29,41.42-47.25,44.42a59.08,59.08,0,0,1-59.41-31.58A55.73,55.73,0,0,1,669,261.81c-4.81-30.2,16.34-57.7,47.26-61.41s59.9,17.74,64.72,47.93A53.2,53.2,0,0,1,780.94,265.32Z" style="fill:#8cc9ff"/><path d="M772.16,258.7c6,3.67,8.44,10.38,6.2,16.43-6.73,18.22-23.39,32.05-44.67,34.61a59.17,59.17,0,0,1-55.52-25,10.35,10.35,0,0,1,.48-12.72l.17-.21c5.55-6.64,17-6.06,22.18.8,7.77,10.3,20.34,16.36,33.39,14.8,14.39-1.74,25.32-12.28,28.63-25.88.83-3.42,5.51-5,8.81-3Z" style="fill:#a6e0ff"/><path d="M778.69,254.64c-1.13,24.09-19.37,44.1-44.72,47-27.39,3.11-53.35-14.83-60.46-40.83a52.63,52.63,0,0,1-1.15-5.22c-4.86-28.75,14.85-54.75,44-58.06s56.78,17.29,61.62,46A51.4,51.4,0,0,1,778.69,254.64Z" style="fill:#516070"/><ellipse cx="674.12" cy="255.16" rx="15" ry="22.5" style="fill:#fff"/><ellipse cx="742.25" cy="238.91" rx="18.13" ry="16.25" style="fill:#fff"/><ellipse cx="720.37" cy="246.93" rx="5" ry="4.48" style="fill:#fff"/></g><path d="M838,354c-21,0-38-11.66-38-26a4,4,0,0,0-8,0c0,14.34-17,26-38,26a4,4,0,0,0,0,8c18.7,0,34.81-8.29,42-20.16,7.19,11.87,23.3,20.16,42,20.16a4,4,0,0,0,0-8Z" style="fill:#666"/><path d="M811.67,313.05c0,5.83-7,12.37-15.62,12.35s-15.58-6.58-15.57-12.41,7-8.7,15.61-8.69S811.68,307.22,811.67,313.05Z" style="fill:#ad9191"/><path d="M804.24,311.75c0,4.08-4.9,8.66-10.93,8.65s-10.91-4.61-10.9-8.69,4.9-6.09,10.93-6.08S804.25,307.67,804.24,311.75Z" style="fill:#bf9f9f"/><path d="M1043.91,321.1c-25.59-4.66-50.21-15.7-75.7-20.93a4.83,4.83,0,0,1-3.83-5.4,4.36,4.36,0,0,1,5.19-3.67c25.5,5.23,50.12,16.27,75.7,20.93a4.69,4.69,0,0,1,3.84,5.29A4.47,4.47,0,0,1,1043.91,321.1Z" style="fill:#998080"/><path d="M1033.75,363.94a5,5,0,0,1-1-.33c-24.56-11.44-48.27-28.51-73-39a4.67,4.67,0,0,1-2.55-6,4.45,4.45,0,0,1,5.95-2.45c24.64,10.88,48.36,28,73,39.09a4.77,4.77,0,0,1,2.53,6.08A4.32,4.32,0,0,1,1033.75,363.94Z" style="fill:#998080"/><path d="M968.42,274.07a4.72,4.72,0,0,1-3.87-4.23,4.51,4.51,0,0,1,4.19-4.9c26.52-1.56,52,3.41,78.43,2.75a4.85,4.85,0,0,1,4.91,4.43,4.41,4.41,0,0,1-4.17,4.83c-26.43,1-52-4-78.43-2.81A4.14,4.14,0,0,1,968.42,274.07Z" style="fill:#998080"/><path d="M612.94,300.58c-29.94,6.41-59,18.2-89.11,23.67a4.5,4.5,0,0,1-5.25-3.76,4.67,4.67,0,0,1,3.8-5.3c30.09-5.47,59.18-17.26,89.12-23.67a4.34,4.34,0,0,1,5.22,3.61A4.86,4.86,0,0,1,612.94,300.58Z" style="fill:#998080"/><path d="M538,366.31a4.33,4.33,0,0,1-5-2.74,4.81,4.81,0,0,1,2.68-6.05c29-12.34,57.12-30.18,86.23-41.81a4.48,4.48,0,0,1,5.88,2.63,4.64,4.64,0,0,1-2.7,5.93c-29.15,11.39-57.27,29.2-86.23,41.76A5.86,5.86,0,0,1,538,366.31Z" style="fill:#998080"/><path d="M616.11,273.79a5.49,5.49,0,0,1-.91.07c-31-.44-61.08,5.31-92,5.58a4.38,4.38,0,0,1-4.38-4.62,4.86,4.86,0,0,1,4.73-4.64c30.88-.48,60.93-6.21,92-5.53a4.55,4.55,0,0,1,4.4,4.74A4.7,4.7,0,0,1,616.11,273.79Z" style="fill:#998080"/><path d="M758.88,302.07a6,6,0,0,0-7.35-4.24,93.76,93.76,0,0,1-58.21-3.05A6,6,0,0,0,689,306a106.18,106.18,0,0,0,28.12,6.62A7.15,7.15,0,0,0,717,314a7,7,0,0,0,14,0,6.77,6.77,0,0,0-.08-1,106.52,106.52,0,0,0,23.72-3.57A6,6,0,0,0,758.88,302.07Z" style="fill:#ccedff"/><path d="M905.43,298.23a6,6,0,0,0-7.75-3.45,93.76,93.76,0,0,1-58.21,3.05,6,6,0,1,0-3.11,11.59,106.82,106.82,0,0,0,21.74,3.48,6.62,6.62,0,0,0-.1,1.1,7,7,0,0,0,14,0,6.28,6.28,0,0,0-.12-1.24A106.54,106.54,0,0,0,902,306,6,6,0,0,0,905.43,298.23Z" style="fill:#ccedff"/><rect x="580.5" y="100" width="440" height="1000" rx="50" transform="translate(1400.5 -200.5) rotate(90)" style="fill:#82665a"/><rect x="310.5" y="390" width="980" height="420" rx="40" style="fill:#4d4541"/><path d="M305.5,605a5,5,0,0,1-5-5V430a50.06,50.06,0,0,1,50-50H800a5,5,0,0,1,0,10H350.5a40,40,0,0,0-40,40V600A5,5,0,0,1,305.5,605Z" style="fill:#b38f81"/></g></svg>