<svg xmlns="http://www.w3.org/2000/svg" width="1600" height="900" viewBox="0 0 1600 900"><g id="Layer_9" data-name="Layer 9"><rect width="1600" height="900" style="opacity:0.8"/><rect x="580.5" y="100" width="440" height="1000" rx="50" transform="translate(1400.5 -200.5) rotate(90)" style="fill:#82665a"/><rect x="310.5" y="390" width="980" height="420" rx="40" style="fill:#4d4541"/><path d="M305.5,605a5,5,0,0,1-5-5V430a50.06,50.06,0,0,1,50-50H800a5,5,0,0,1,0,10H350.5a40,40,0,0,0-40,40V600A5,5,0,0,1,305.5,605Z" style="fill:#b38f81"/><path d="M944.15,240.33c4.3,3.57,10.25,2.87,13.88-1.75,22.54-28.74,18.4-84.68,15.38-125.52,0,0-.13-1.76-.13-1.83-.72-7.92-4.08-14.74-9.49-19.21a20.43,20.43,0,0,0-21.35-3.18l-.19.08c-8.13,3.66-17.57,7.15-26.7,10.52-26.81,9.9-52.13,19.26-62.78,37.46-3.12,5.33-2.26,12.58,2,16.69l88.74,86.15A7.32,7.32,0,0,0,944.15,240.33Z" style="fill:#787878"/><path d="M955,120.3c2.3,31.11,5.79,75-10.11,95.24L873,145.76c9.66-16.52,44.18-24.21,68.47-35.16C947.7,108,954.31,112.33,955,120.3Z" style="fill:#d993a7"/><path d="M955.51,126.91c-.16-2.25-.33-4.46-.49-6.61-.71-8-7.32-12.33-13.52-9.7-24.29,11-58.81,18.64-68.47,35.16l15.77,15.3C898.51,145.12,931.48,137.43,955.51,126.91Z" style="fill:#cc8599"/><path d="M641.57,240.33c-4.31,3.57-10.26,2.87-13.89-1.75-22.54-28.74-18.4-84.68-15.38-125.52,0,0,.13-1.76.14-1.83.71-7.92,4.07-14.74,9.48-19.21a20.43,20.43,0,0,1,21.35-3.18l.2.08c8.12,3.66,17.56,7.15,26.69,10.52,26.81,9.9,52.13,19.26,62.78,37.46,3.12,5.33,2.26,12.58-2,16.69l-88.74,86.15C642,240,641.79,240.15,641.57,240.33Z" style="fill:#787878"/><path d="M630.69,120.3c-2.3,31.11-5.79,75,10.11,95.24l71.88-69.78c-9.66-16.52-44.18-24.21-68.47-35.16C638,108,631.4,112.33,630.69,120.3Z" style="fill:#d993a7"/><path d="M712.68,145.76l-2.22,2.15c-14.75-7.57-34.62-13.26-50.25-20.31-6.2-2.63-12.81,1.73-13.52,9.7-1.62,21.9-3.83,50.12.56,72l-6.45,6.26c-15.9-20.27-12.41-64.13-10.11-95.24.71-8,7.32-12.33,13.52-9.7C668.5,121.55,703,129.24,712.68,145.76Z" style="fill:#cc8599"/><path d="M983.5,284.11c.14-71.11-69.29-149.38-159.34-161.55-.42-3.62-2.58-7.92-3.93-10.62-4.94-10.6-17.35-17.11-22.35-14.27-2.77,1.88-3.16,9.07,3.31,16.43-.44-.33-.89-.67-1.32-1-6.48-5.28-14.61-4.79-16.2-1.84-1.45,2.69,2,7.35,8.74,9.87-97.65,4.13-175.7,87.07-175.84,162.3-.15,77.26,81.91,117.12,183.24,117.31S983.35,361.37,983.5,284.11Z" style="fill:#f9e6c5"/><path d="M948.43,270.31c-.12,61.8-65.89,93.44-147,93.28s-146.71-32-146.59-93.85,66-130.13,147-130S948.55,208.5,948.43,270.31Z" style="fill:#787878"/><path d="M716.31,390.11c25,7,53.42,10.55,83.5,10.6,101.32.2,183.54-39.34,183.69-116.6.1-51.43-36.2-106.6-90.36-137.8,33.79,33.69,54.7,78.14,54.62,120.27-.16,83.34-82.39,126-183.71,125.81C747.78,392.36,731.33,392.34,716.31,390.11Z" style="opacity:0.11"/><path d="M1052.18,324.94c-25.89-2.42-51.38-11.26-77.23-14.25a4.84,4.84,0,0,1-4.28-5.05,4.35,4.35,0,0,1,4.85-4.11c25.85,3,51.34,11.84,77.23,14.25a4.7,4.7,0,0,1,4.29,4.94A4.48,4.48,0,0,1,1052.18,324.94Z" style="fill:#998080"/><path d="M1045.8,368.5a5,5,0,0,1-1-.24c-25.47-9.26-50.58-24.19-76.1-32.54A4.65,4.65,0,0,1,965.6,330a4.43,4.43,0,0,1,5.71-2.95c25.5,8.68,50.61,23.64,76.09,32.57a4.79,4.79,0,0,1,3.06,5.85A4.33,4.33,0,0,1,1045.8,368.5Z" style="fill:#998080"/><path d="M972.89,284.67a4.72,4.72,0,0,1-4.23-3.88,4.51,4.51,0,0,1,3.74-5.25c26.29-3.87,52.16-1.13,78.38-4.09a4.86,4.86,0,0,1,5.28,4,4.39,4.39,0,0,1-3.74,5.16c-26.25,3.28-52.12.53-78.38,4A4.62,4.62,0,0,1,972.89,284.67Z" style="fill:#998080"/><path d="M548.27,323.94c25.89-2.42,51.38-11.26,77.23-14.25a4.85,4.85,0,0,0,4.29-5.05,4.37,4.37,0,0,0-4.86-4.11c-25.85,3-51.34,11.84-77.23,14.25a4.7,4.7,0,0,0-4.29,4.94A4.48,4.48,0,0,0,548.27,323.94Z" style="fill:#998080"/><path d="M554.65,367.5a4.75,4.75,0,0,0,1-.24c25.47-9.26,50.58-24.19,76.1-32.54a4.65,4.65,0,0,0,3.06-5.76,4.43,4.43,0,0,0-5.71-2.95c-25.5,8.68-50.61,23.64-76.09,32.57a4.79,4.79,0,0,0-3.06,5.85A4.33,4.33,0,0,0,554.65,367.5Z" style="fill:#998080"/><path d="M627.57,283.67a4.72,4.72,0,0,0,4.22-3.88,4.51,4.51,0,0,0-3.74-5.25c-26.29-3.87-52.16-1.13-78.38-4.09a4.86,4.86,0,0,0-5.28,4,4.39,4.39,0,0,0,3.74,5.16c26.25,3.28,52.12.53,78.38,4A4.7,4.7,0,0,0,627.57,283.67Z" style="fill:#998080"/><path d="M769.91,275.61a4,4,0,0,1-3.64-4.34c1.21-13.77-18.3-27.19-42.6-29.32a67.86,67.86,0,0,0-28.25,3.14,4,4,0,1,1-2.66-7.54,75.78,75.78,0,0,1,31.6-3.57c29.61,2.59,51.52,19.28,49.88,38A4,4,0,0,1,769.91,275.61Z" style="fill:#666"/><path d="M833.57,276.61a4,4,0,0,0,3.64-4.34C836,258.5,855.52,245.08,879.82,243a67.83,67.83,0,0,1,28.24,3.14,4,4,0,0,0,2.66-7.54,75.76,75.76,0,0,0-31.6-3.57c-29.61,2.59-51.52,19.28-49.88,38A4,4,0,0,0,833.57,276.61Z" style="fill:#666"/><path d="M796.25,339.7c4.56-6.21,16.47-10.31,30.36-9.31a3.22,3.22,0,0,1,3,3.54c-.39,3.45-.78,6.89-1.16,10.34a3.15,3.15,0,0,1-3.52,2.74q-13.28-1.54-26.52-2.34A3,3,0,0,1,796.25,339.7Z" style="fill:#d4a86a"/><path d="M750.47,343.79c3.11-7.28,13.85-15,27.54-18.44a2.9,2.9,0,0,1,3.71,2.43c.38,3.42.77,6.83,1.16,10.25a3.5,3.5,0,0,1-2.81,3.72q-13.23,2.65-26.39,6C751.22,348.43,749.44,346.2,750.47,343.79Z" style="fill:#d4a86a"/><path d="M842.73,395.22c5.25,5.6,17.49,8.38,31.11,7.47a2.8,2.8,0,0,0,2.56-3.54q-1.18-5.2-2.38-10.41A3.59,3.59,0,0,0,870.2,386q-12.94,1.65-25.93,4A3.08,3.08,0,0,0,842.73,395.22Z" style="fill:#bfb4a2"/><path d="M841.56,351.86c3.57-6.43,14.78-11.25,28.57-11.11a3.63,3.63,0,0,1,3.51,3.38l.48,10.46a2.77,2.77,0,0,1-3,3q-13.27-.82-26.6-.87A3.3,3.3,0,0,1,841.56,351.86Z" style="fill:#d4a86a"/><path d="M716.74,387.31c-14.16,3.1-35,2.95-36,3.05-2.16,0-3.37-1.94-2.71-4.37s3-4.42,5.12-4.41c7.14-.14,28-.29,37.46-3.82,2.27-.89,4.43.2,4.81,2.41a5.38,5.38,0,0,1-3.43,5.57A39.77,39.77,0,0,1,716.74,387.31Z" style="fill:#ab8b80"/><path d="M963.5,418.12c-2.27-.73-4.1-4.11-4.1-7.59s1.84-5.74,4.1-5v-8.4c-2.27-.73-4.1-4.11-4.1-7.59s1.84-5.74,4.1-5v-8.4c-2.27-.73-4.1-4.11-4.1-7.59s1.84-5.74,4.1-5v-3.74s-19.57-4.13-39.51-3.44c-19.88.36-40.11,5.54-40.09,16.53s20.21,21.33,40.09,31c19.94,9.33,39.54,18,39.51,18Z" style="fill:#d4b99d"/><path d="M696.66,407.17a7.16,7.16,0,0,1,.23-.75l-1.21.53C696,407,696.34,407.09,696.66,407.17Z" style="fill:#d49d50"/><path d="M959.4,414.27c-9.76-3.13-30.7-13.63-48.66-23.39-11.54-6.4-21.79-12.67-26.84-18,4.67-3.68,13.72-6.79,24.15-8.67,18.52-3.57,41.11-2.71,51.35.59,3.4,1,6.15-.88,6.15-4.35a9.22,9.22,0,0,0-6.15-8.25c-12.4-4.29-49.77-5.55-72.71,4.18a464.9,464.9,0,0,0-74.56-17.9c-66.76-7-120,27.08-133.09,47.31,21.9-6.5,41.58-5.49,44.07.56,17.48-8.18,42.24-15.09,69.9-16.76,43.55-2.94,83.17,10.21,95.63,21.92h.07c23.08,14.74,58.63,31.24,70.69,35.37,3.4,1.05,6.15-.87,6.15-4.35A9.23,9.23,0,0,0,959.4,414.27Z" style="fill:#d49d50"/><path d="M742.26,359.77A11.93,11.93,0,0,1,732.81,371c-5.21,1-9.42-2.29-9.42-7.52a12.13,12.13,0,0,1,9.42-11.38A7.64,7.64,0,0,1,742.26,359.77Z" style="fill:#ba8a46"/><path d="M740.16,359.09a10.67,10.67,0,0,1-8.4,10c-4.63.91-8.37-2-8.37-6.68a10.79,10.79,0,0,1,8.37-10.12A6.75,6.75,0,0,1,740.16,359.09Z" style="fill:#fff"/><path d="M736,359.86a5.35,5.35,0,0,1-4.2,5,3.34,3.34,0,0,1-4.19-3.36,5.39,5.39,0,0,1,4.19-5A3.36,3.36,0,0,1,736,359.86Z" style="fill:#333"/><path d="M959.41,406.33a6.37,6.37,0,0,1-.69-.25q-9.26-3.9-18.58-7.4c-3.42-1.29-5.89-5-5.5-8.37s3.47-5.08,6.87-3.79q9.33,3.53,18.57,7.46c3.38,1.43,5.8,5.35,5.43,8.68C965.16,405.77,962.5,407.29,959.41,406.33Z" style="fill:#d49d50"/><path d="M940.82,382.09a8.73,8.73,0,0,1-6.18-7.19c-.39-3.55,2.08-6.06,5.5-5.55q9.33,1.41,18.58,3.21a9.18,9.18,0,0,1,6.79,7.71c.38,3.58-2,5.9-5.43,5.23q-9.24-1.83-18.57-3.26A5.29,5.29,0,0,1,940.82,382.09Z" style="fill:#d49d50"/><path d="M698.47,406.91a5.13,5.13,0,0,0,.19.7c-.68-.14-1.35-.3-2-.45.09-.25.15-.5.23-.73.54-.24,1.06-.46,1.59-.72A4,4,0,0,0,698.47,406.91Z" style="fill:#e3ceaf"/><path d="M725.48,389.25c0,1.51-2.63,3.17-6.62,5,2.86-2.35,4.53-4.58,4.53-6.55a2.64,2.64,0,0,0-.15-.89C725.33,387.76,725.48,388.93,725.48,389.25Z" style="fill:#e3ceaf"/><path d="M888.65,391.51a418.84,418.84,0,0,0-76.52,10.74C767.94,411,729,412.58,704.4,408.69c-2-.3-3.92-.67-5.74-1.08a3.29,3.29,0,0,1-.19-.7,4,4,0,0,1,0-1.2c8.44-3.79,15.86-7.77,20.37-11.46h0c4-1.83,6.62-3.49,6.62-5,0-.32-.15-1.49-2.24-2.44a1.88,1.88,0,0,0-.12-.48c2.92-1.35,6-2.69,9.35-4A205,205,0,0,1,793,369.58C836.56,366.64,876.18,379.79,888.65,391.51Z" style="fill:#e3ceaf"/><path d="M705.25,399.85c5-2,9.85-3.87,13.59-5.6-4.52,3.69-11.93,7.67-20.37,11.46a6,6,0,0,1,3.5-4.51Z" style="fill:#c9b79b"/><path d="M698.43,408.41a3,3,0,0,1-4.09-2.44,5.81,5.81,0,0,1,3.49-5.75l3.27-1.37c10.34-4.31,20.2-7.89,20.2-10.8.08-.47-1.3-9.14-39.35,2.12-2.27.71-4.1-.57-4.1-2.89a6.17,6.17,0,0,1,4.1-5.51c32.71-10,47.77-6.88,47.72,4.51,0,10.22-11,13.83-27.38,20.57-1.09.44-2.17.9-3.26,1.35A3.91,3.91,0,0,1,698.43,408.41Z" style="fill:#d4b99d"/><path d="M802.12,320h-.06l0,.08Z" style="fill:#737373"/><path d="M801.84,333.21c.23.27.47.53.72.79-.18-.48-.35-1-.5-1.45C802,332.77,801.91,333,801.84,333.21Z" style="fill:#737373"/><ellipse cx="760.06" cy="326" rx="41.94" ry="30" style="fill:#6e6e6e"/><ellipse cx="843.94" cy="326" rx="41.94" ry="30" style="fill:#6e6e6e"/><path d="M844.11,358c-18.66,0-34.76-8.28-41.94-20.13C795,349.72,778.88,358,760.23,358a57.08,57.08,0,0,1-29.08-7.62,4,4,0,0,1,4.13-6.85,49,49,0,0,0,25,6.47c20.92,0,37.94-11.66,37.94-26a4,4,0,0,1,8,0c0,14.34,17,26,37.94,26a49.08,49.08,0,0,0,24.79-6.38,4,4,0,0,1,4.1,6.87A57.14,57.14,0,0,1,844.11,358Z" style="fill:#666"/><path d="M817.51,309.35c0,5.82-7,12.37-15.62,12.35s-15.58-6.59-15.57-12.41,7-8.7,15.61-8.69S817.52,303.52,817.51,309.35Z" style="fill:#ad9191"/><path d="M810.08,308.05c0,4.08-4.9,8.66-10.93,8.65s-10.91-4.61-10.9-8.69,4.9-6.09,10.93-6.08S810.09,304,810.08,308.05Z" style="fill:#bf9f9f"/></g></svg>