<svg xmlns="http://www.w3.org/2000/svg" width="330" height="130" viewBox="0 0 330 130"><g id="Layer_3" data-name="Layer 3"><path d="M298.5,70a17.5,17.5,0,0,1,0,35H107V70Zm0-10H97v55H298.5a27.5,27.5,0,0,0,0-55Z" style="fill:#ccbfa2"/><path d="M119,60H298.39a27.5,27.5,0,0,1,23.69,41.47,5,5,0,0,1-7.81.92h0a5.06,5.06,0,0,1-.74-6.12A17.45,17.45,0,0,0,315.88,87c-.27-9.56-8.47-17-18-17H119Z" style="fill:#f9f0e0"/><rect x="112" y="74" width="191" height="13" rx="6.5" style="fill:#ebdad3;opacity:0.33"/><circle cx="64" cy="65" r="50" style="fill:#332d29"/><path d="M88,47a12,12,0,0,0-2,.18V44c0-7.72-5.83-14-13-14a12.5,12.5,0,0,0-9,3.92A12.5,12.5,0,0,0,55,30c-7.17,0-13,6.28-13,14v3.18A12,12,0,0,0,40,47c-7.17,0-13,6.28-13,14v4a14.18,14.18,0,0,0,7,12.41V115H94V77.41A14.18,14.18,0,0,0,101,65V61C101,53.28,95.17,47,88,47Z" style="fill:#d9c1c7"/><path d="M35,65V61c0-7.72,5.83-14,13-14a12,12,0,0,1,2,.18V44a14,14,0,0,1,9-13.31A12.08,12.08,0,0,0,55,30c-7.17,0-13,6.28-13,14v3.18A12,12,0,0,0,40,47c-7.17,0-13,6.28-13,14v4a14.18,14.18,0,0,0,7,12.41V115h8V77.41A14.18,14.18,0,0,1,35,65Z" style="fill:#ecd2d9"/><path d="M81.41,74.1C75,67.66,70.62,70,66.5,74.1c-6.67-6.67-10.79-4.13-14.91,0a10.59,10.59,0,0,0,0,15L64,102.5l2.5,1.5,14.91-15A10.59,10.59,0,0,0,81.41,74.1Z" style="fill:#bfaaaf"/><path d="M50.5,62.5c0-5-4.58-10-9-10s-7,5-7,10v4c0,5,0,6.83,8,9,4.42,0,8-4,8-9Z" style="fill:#bfaaaf"/><path d="M65.5,45.5c0-5-4.58-10-9-10s-7,5-7,10v4c0,5,0,6.83,8,9,4.42,0,8-4,8-9Z" style="fill:#bfaaaf"/><path d="M83.5,45.5c0-5-4.58-10-9-10s-7,5-7,10v4c0,5,0,6.83,8,9,4.42,0,8-4,8-9Z" style="fill:#bfaaaf"/><path d="M98,62.5c0-5-4.58-10-9-10s-7,5-7,10v4c0,5,0,6.83,8,9,4.42,0,8-4,8-9Z" style="fill:#bfaaaf"/><path d="M78.91,72.6A10.52,10.52,0,0,0,64,72.6a10.56,10.56,0,1,0-14.91,15L64,102.5l14.91-15A10.59,10.59,0,0,0,78.91,72.6Z" style="fill:#ec7696"/><path d="M48,61c0-5-3.58-9-8-9s-8,4-8,9v4c0,5,3.58,9,8,9s8-4,8-9Z" style="fill:#ec7696"/><path d="M63,44c0-5-3.58-9-8-9s-8,4-8,9v4c0,5,3.58,9,8,9s8-4,8-9Z" style="fill:#ec7696"/><path d="M81,44c0-5-3.58-9-8-9s-8,4-8,9v4c0,5,3.58,9,8,9s8-4,8-9Z" style="fill:#ec7696"/><path d="M96,61c0-5-3.58-9-8-9s-8,4-8,9v4c0,5,3.58,9,8,9s8-4,8-9Z" style="fill:#ec7696"/><rect x="34" y="54" width="9" height="12" rx="4.5" style="fill:#ec829e"/><rect x="49" y="72" width="13" height="12" rx="6" style="fill:#ec829e"/><rect x="49" y="37" width="9" height="12" rx="4.5" style="fill:#ec829e"/><rect x="67" y="37" width="9" height="12" rx="4.5" style="fill:#ec829e"/><rect x="82" y="54" width="9" height="12" rx="4.5" style="fill:#ec829e"/><path d="M64,5a60,60,0,1,0,60,60A60.07,60.07,0,0,0,64,5Zm0,110a50,50,0,1,1,50-50A50,50,0,0,1,64,115Z" style="fill:#ccbfa2"/><path d="M69,10a5,5,0,0,1-5,5A50.06,50.06,0,0,0,14,65,5,5,0,0,1,4,65,60.07,60.07,0,0,1,64,5,5,5,0,0,1,69,10Z" style="fill:#f9f0e0"/></g></svg>