<svg xmlns="http://www.w3.org/2000/svg" xmlns:xlink="http://www.w3.org/1999/xlink" width="1600" height="900" viewBox="0 0 1600 900"><defs><linearGradient id="linear-gradient" x1="800" y1="900" x2="800" gradientUnits="userSpaceOnUse"><stop offset="0" stop-color="#9ef"/><stop offset="1" stop-color="#2aa8e6"/></linearGradient><linearGradient id="linear-gradient-2" x1="711.5" y1="302.38" x2="711.5" y2="131.84" gradientUnits="userSpaceOnUse"><stop offset="0" stop-color="#8cd9ff"/><stop offset="1" stop-color="#b8d7e6"/></linearGradient><mask id="mask" x="452.89" y="476.5" width="150.13" height="132.48" maskUnits="userSpaceOnUse"><path d="M499.77,549.89c3,21.32,23.42,26.85,47.26,23.55s41.52-17.82,38.56-39.15-25.43-41.39-49.27-38.09C514.51,499.22,497.19,531.26,499.77,549.89Z" style="fill:#fff"/></mask><mask id="mask-2" x="300.23" y="497.65" width="150.13" height="132.48" maskUnits="userSpaceOnUse"><path d="M433.44,559.08c3,21.33-15.23,32.21-39.07,35.51s-44.8-5.86-47.75-27.18,13.21-46.75,37.05-50C405.48,514.33,430.86,540.45,433.44,559.08Z" style="fill:#fff"/></mask><linearGradient id="linear-gradient-3" x1="1314.5" y1="279.5" x2="1314.5" y2="60.5" gradientUnits="userSpaceOnUse"><stop offset="0" stop-color="#c2ebff"/><stop offset="1" stop-color="#e6e6e6"/></linearGradient><linearGradient id="linear-gradient-4" x1="356" y1="233.5" x2="356" y2="0.5" xlink:href="#linear-gradient-3"/></defs><g id="Layer_4" data-name="Layer 4"><rect width="1600" height="900" style="fill:url(#linear-gradient)"/><path d="M958.5,301.45c0-30-20.79-55.68-52.73-72-9.47-28.4-43-49.55-83.13-50.31-20.85-28.76-53.53-47.29-90.29-47.29-38.21,0-72,20-92.71,50.76a131.56,131.56,0,0,0-48.16-9c-70.13,0-127,54.36-127,121.41H705a65.25,65.25,0,0,0-.43,7.42Z" style="fill:url(#linear-gradient-2)"/><path d="M882.77,289.81c2.85-1.75,4.36-3.56,4.36-5.43,0-13.61-80.08-24.64-178.87-24.64s-178.88,11-178.88,24.64a3.34,3.34,0,0,0,.14.94c-37.95,1.68-65,6.1-65,11.28,0,6.63,44.4,12,99.17,12,22.74,0,43.69-.92,60.42-2.48C649.17,308,677.82,309,708.26,309c22.77,0,44.54-.59,64.57-1.66,17,3.67,49.36,6.14,86.5,6.14,54.77,0,99.17-5.38,99.17-12C958.5,295.83,926.22,291.09,882.77,289.81Z" style="fill:#74b4cc"/><g style="opacity:0.6000000000000001"><path d="M1228.74,900.5h-20.07c-6-108.16-5.26-214.26-13.43-323.49-.51-7.72-8.74-12.9-18.16-11.51s-16.19,8.67-15.29,16.24q2.74,23.78,5,47.49c.65,7-5.15,13.46-12.83,14.47s-14.56-3.76-15.52-10.65c-4.1-30.32-8.81-60.66-14.31-91-1.17-6.61-9.11-10.75-17.61-9.22s-14.08,8-12.6,14.47c26.77,116.89,38.81,234.24,51.6,353.17h-34.17c-12.6-94.34-26.87-187.45-50.69-279-1.81-7.16-10.3-11.81-18.84-10.41s-13.58,8.17-11.37,15.14c27.83,89.33,45,181.25,58.83,274.32h-23.62c-21.81-135-56.94-269.58-121.46-389.37-3.28-6.08,2.06-12.92,12-15.31s20.42.81,23.29,7.19c3.19,6.84,14,10.6,24.28,8.37l2.77-.6c10.28-2.23,16.57-9.86,13.91-17a1075.44,1075.44,0,0,0-52.84-118.49c-6-11.24,6.69-26.15,28.9-33.26s44.41-2.54,49,10a1317.39,1317.39,0,0,1,46.78,152.52c2.11,8.43,12.8,13.57,24.1,11.53s19.38-10.72,17.85-19.45q-5.68-31.5-12.6-62.94c-4-17.23,13.92-36.18,41-41.82s51.17,5.38,52.8,23.89c8.7,88.28,11.73,174.71,11.88,259.73C1227.75,750.94,1225.89,825,1228.74,900.5Z" style="fill:#82bee8"/><path d="M1258.86,549.93h0c-6-.54-9.62-4.93-8.08-9.83q14.12-44.4,29.93-90.24c1.73-5.06,8.71-8.84,15.62-8.37h0c6.9.47,11,5,9.09,10.09-11.32,30.62-22.25,60.77-32.55,90.47C1271.14,547,1264.86,550.48,1258.86,549.93Z" style="fill:#82bee8"/><path d="M909.67,500.11h0c-9.83,4.35-23.45,3.37-30.7-1.91q-15.39-11.32-31.66-21.74c-7.64-4.85-5.37-12.57,5.29-17.58h0c10.65-5,25.36-5.08,32.6.11q15.52,11,30.17,22.92C922.19,487.5,919.51,495.77,909.67,500.11Z" style="fill:#82bee8"/><path d="M970,666.48h0c-6.18,1.89-14.07-1-17.77-6.29q-15.78-22.85-33.93-44.58c-4.26-5.05-2.17-10.88,4.83-13.12h0c7-2.25,16,0,20,5.24q17.11,22.15,31.95,45.42C978.48,658.58,976.14,664.59,970,666.48Z" style="fill:#82bee8"/></g><path d="M1113.06,427.6c12.61-2.16,29,5.74,39.51,21.86,1.4,2.13.33,5.44-2.36,7.24L1134.79,467c-2.58,1.73-5.64,1.4-6.86-.7q-9.26-16-19.83-30.88C1106.12,432.67,1108.88,428.31,1113.06,427.6Z" style="fill:#d4a86a"/><path d="M1066,384.75c12.34-4.61,32.74-2.27,50.2,7.86,2.3,1.33,2.36,4.31.11,6.5q-6.45,6.31-12.93,12.62c-2.17,2.11-5.57,2.64-7.61,1.22-10.33-7.22-21-14.08-32-20.62C1060.65,390.49,1061.92,386.29,1066,384.75Z" style="fill:#d4a86a"/><path d="M1076,539.22c-3.24,11.77,3.71,27.49,17.34,40.37,1.8,1.7,5,1.19,7.12-1.19l12-13.7c2-2.29,2.21-5.42.41-7Q1099.25,546,1084.63,535C1081.89,533,1077.08,535.34,1076,539.22Z" style="fill:#bfb4a2"/><path d="M1135.39,489.65c12-3.34,28.2,3.48,39.24,18.94,1.46,2,.68,5.49-1.73,7.55L1159.06,528c-2.31,2-5.24,1.92-6.57-.1q-10-15.27-21.31-29.67C1129.06,495.49,1131.41,490.75,1135.39,489.65Z" style="fill:#d4a86a"/><path d="M981.19,394.65c-15.5-12.39-32.89-35.18-33.93-36-1.86-2.32-.84-5.27,2.33-6.66s7.37-.74,9.3,1.51c6.61,7.19,24.75,29.2,37.22,35.8,3,1.51,3.58,4.91,1.17,7.57a8.58,8.58,0,0,1-9.79,1.95A44.06,44.06,0,0,1,981.19,394.65Z" style="fill:#ab8b80"/><path d="M1160.05,683.76c-1.49-2.83.39-7.6,4.22-10.67s8-3.17,9.34-.23l9-7.26c-1.26-3,.81-7.89,4.63-11s7.83-3,8.92.05l9-7.27c-1-3.14,1.23-8.16,5-11.23s7.64-2.92,8.5.33l4-3.23c.45-.23-9.26-26.58-25.73-48.31-16-22-38.81-39.3-54.47-26.89-29.25,23.47,13.33,129.12,13.43,128.9Z" style="fill:#d4b99d"/><path d="M941.59,391.43a8.77,8.77,0,0,1,1-.44l-1.55-.88C941.23,390.53,941.43,391,941.59,391.43Z" style="fill:#d49d50"/><path d="M1160.17,676.37c-6.36-12.25-14.27-42.76-17.69-71.37-2.19-18.38-2.72-35.85.12-46.9,9,1,20.8,7.51,31.83,17,20,16.55,36,43.17,40,57.83,1.4,4.82,5.49,6.3,9.17,3.34s5.79-9.42,4.63-14.41c-3.44-18.62-28.66-63.71-61.1-78.26-8.12-30.9-20.23-66.35-38.33-100.56-24-39.7-62.13-61.9-96.4-75-34.56-12.89-65.31-16.64-81.65-15.23,26.43,17.18,42.54,38.78,37,47.78A253.91,253.91,0,0,1,1069,457.66c41.46,43.22,57,100.19,52.79,125.16l.07.07c.22,39.91,15.73,89.92,24.5,104.55a7.18,7.18,0,0,0,11.05,2.1A11.19,11.19,0,0,0,1160.17,676.37Z" style="fill:#d49d50"/><path d="M1037.8,393.36c-6.73,5.54-16.81,6.31-22.63,1.85s-5.42-12.24,1-17.5,16.7-6.28,22.84-2.09S1044.54,387.83,1037.8,393.36Z" style="fill:#ba8a46"/><path d="M1036.79,390.47c-6,4.9-14.94,5.6-20.15,1.68s-4.88-10.83.82-15.51,14.84-5.57,20.31-1.86S1042.74,385.57,1036.79,390.47Z" style="fill:#fff"/><path d="M1032,386.94c-3,2.43-7.46,2.8-10.1.87s-2.45-5.41.43-7.78,7.44-2.79,10.14-.91S1035,384.52,1032,386.94Z" style="fill:#333"/><path d="M1168.87,669.41a8.29,8.29,0,0,1-1-2c-2.92-8.44-5.86-17-8.8-25.49-1.61-4.6.93-10.23,5.61-12.51s9.56-.24,11,4.48c2.66,8.8,5.3,17.72,7.9,26.5,1.37,4.72-.86,10-5.07,11.87A7.75,7.75,0,0,1,1168.87,669.41Z" style="fill:#d49d50"/><path d="M1191.88,651c-.06-.1-.11-.2-.16-.3-3.82-7.58-7.85-15.24-12-22.73-2.34-4.17-.83-10.17,3.41-13.41s9.5-2.39,11.58,1.92c3.91,7.83,7.64,15.83,11.13,23.77a11.4,11.4,0,0,1-3.37,13.1A7,7,0,0,1,1191.88,651Z" style="fill:#d49d50"/><path d="M943.29,393.26a7.21,7.21,0,0,0-.66.88c-.36-.93-.7-1.83-1-2.73.36-.14.69-.3,1-.42.69.4,1.35.77,2.06,1.15A6.22,6.22,0,0,0,943.29,393.26Z" style="fill:#e3ceaf"/><path d="M986.07,406.14c-1.88,1.55-6.11.35-11.57-2.24,5.19.82,9.32.39,11.75-1.62a4.48,4.48,0,0,0,1-1.06C987.8,404.47,986.46,405.82,986.07,406.14Z" style="fill:#e3ceaf"/><path d="M1121.8,582.84a532.85,532.85,0,0,0-81.86-68c-49.61-37-79.78-80.91-94.13-113.07-1.2-2.59-2.24-5.14-3.18-7.6a7.21,7.21,0,0,1,.66-.88,6.45,6.45,0,0,1,1.38-1.12c10.94,6.07,21.65,10.45,29.81,11.74l0,0c5.46,2.59,9.69,3.78,11.57,2.24.39-.32,1.73-1.67,1.16-4.92a3.21,3.21,0,0,0,.48-.62c4.11,1.81,8.4,3.82,12.8,6.07a254,254,0,0,1,68.5,51C1110.47,500.87,1126,557.85,1121.8,582.84Z" style="fill:#e3ceaf"/><path d="M956.82,394.24c6.36,3.65,12.52,7.24,17.66,9.64-8.16-1.29-18.87-5.66-29.81-11.74a8.1,8.1,0,0,1,8-.3Z" style="fill:#c9b79b"/><path d="M941.53,394.62a4.63,4.63,0,0,1-.38-7,8,8,0,0,1,9.31-1.39l4.21,2.37c13.3,7.48,25.83,14.66,29.41,11.72.85-.58,9.79-10.28-35.57-40.63-2.71-1.81-2.91-4.88-.45-6.86a8.89,8.89,0,0,1,9.54-.49c40.43,24.77,50.24,43.37,35.64,55.29-12.8,10.53-26.33,2.22-46.91-10.1l-4.09-2.45A7.48,7.48,0,0,1,941.53,394.62Z" style="fill:#d4b99d"/><path d="M1223.55,636.26c-3.37,2.71-7.09,1.7-8.77-2.21a9.55,9.55,0,0,0-4.5,2.15,15.63,15.63,0,0,0-4.08,5,11.45,11.45,0,0,1-3.75,12.07,7,7,0,0,1-6.12,1.28l-.22-.07a3.35,3.35,0,0,0-3.24-2.15,9,9,0,0,0-5.6,2.28,14.66,14.66,0,0,0-4,4.91c.09.28.17.55.25.83,1.37,4.72-.86,10-5.07,11.87a7.59,7.59,0,0,1-4.76.49l-.22,0a3.69,3.69,0,0,0-3.54-2,9.67,9.67,0,0,0-5.71,2.37,13.83,13.83,0,0,0-3.63,4.39,11.25,11.25,0,0,1-3.22,12.06,7.18,7.18,0,0,1-11.05-2.1c-8.77-14.63-24.28-64.64-24.5-104.55l-.07-.07v0q-3.91-4-8.15-8.13c-1.25-1.22-2.51-2.44-3.8-3.66l-1.59-1.52-7.79,8.87c-2.09,2.38-5.32,2.89-7.12,1.19-12.93-12.21-19.84-27-17.76-38.51q-11.5-9.23-24.34-18.41l0,0c-22.29-17,34.39-1.09,54.06-12.48a11.94,11.94,0,0,0,6-7.32.83.83,0,0,0,0-.15,70.64,70.64,0,0,0,.08-34.54c-6.27-25.71-13.06-45.37-14.88-54.8-1.22-6.4-.16-8.1,4.93-3.79.71.66,1.41,1.32,2.11,2l0-.05c1.71,1.64,3.75,3.75,6.15,6.37.42.44.83.9,1.26,1.37,2.32,2.56,4.59,5.23,6.78,8,11.76.21,25.51,8,34.78,22.2,1.4,2.13.33,5.44-2.36,7.24q-5.55,3.71-11.09,7.44c4,8.66,7.56,17.32,10.84,25.9,8.71,2.49,17.71,8.8,24.67,18.55,1.46,2,.68,5.49-1.73,7.55L1162,525.46c1.85,6.18,3.54,12.24,5.09,18.13,32.44,14.55,57.66,59.64,61.1,78.26C1229.34,626.84,1227.24,633.28,1223.55,636.26Z" style="opacity:0.05"/><path d="M221.89,881c-24.68-46.56-60.43-124.75-30.2-188.48,4.4-9.28,10.56-26,2.3-33.95-7.66-7.35-26.09-8-38.66-1.37-10.75,5.66-9.68,12.14-9.32,14.27a18.35,18.35,0,0,1-36.21,6c-3.59-21.72,7-41.43,28.42-52.69,23-12.13,59.26-13.67,81.16,7.33a49.18,49.18,0,0,1,9.88,13.33C245.69,689.05,150.29,717.49,221.89,881Z" style="fill:#787878"/><path d="M263,900.5H232.41c-3-5.59-6.64-12.13-10.52-19.46-71.6-163.55,23.8-192,7.37-235.59,6.65,13.11,9.53,33.43-4.42,62.84C190,781.82,256.56,890.35,263,900.5Z" style="fill:#6b6b6b"/><path d="M461.44,730.91c0-.55-.06.55,0,0Z" style="fill:#e6d3b6"/><path d="M785.54,559.71a11.82,11.82,0,0,0-1.62-.92l1.69-2.43c4.1-5.89,3-13.78-2.49-17.58a11.52,11.52,0,0,0-9-1.79,11.61,11.61,0,0,0-4.78-7.77c-5.48-3.81-13.26-2.12-17.36,3.78l-1.69,2.42a11.08,11.08,0,0,0-1.43-1.2c-5.47-3.81-13.26-2.11-17.35,3.78l-2.13,3a13.21,13.21,0,0,0-1.25,13.19L702,599.33l-18.46,22.13L636,678.38a22.26,22.26,0,0,1-15.48,8L498,695.4a40.25,40.25,0,0,0-36.57,35.51c-1.29,19.87,12.56,38.72,32.12,42.45a39.62,39.62,0,0,0,18.05-.7l150.62-35.24A22.3,22.3,0,0,0,676,727.6L729,643.67l11.36-18L774,586.1a13.14,13.14,0,0,0,11.92-5.75l2.13-3C792.13,571.41,791,563.52,785.54,559.71Z" style="fill:#e6d3b6"/><path d="M788,577.31l-2.13,3A13.14,13.14,0,0,1,774,586.1l-33.67,39.57-9,14.33a8.1,8.1,0,0,1-7,3.78c-7.64-.14-15.33-1.87-18.1-7.25s-8.52-10.59-15.29-13.29a5.22,5.22,0,0,1-2-8.19L702,599.33l26.21-45.09a13.21,13.21,0,0,1,1.25-13.19l2.13-3c4.09-5.89,11.88-7.59,17.35-3.78a11.08,11.08,0,0,1,1.43,1.2L752,533c4.1-5.9,11.88-7.59,17.36-3.78a11.61,11.61,0,0,1,4.78,7.77,11.52,11.52,0,0,1,9,1.79c5.47,3.8,6.59,11.69,2.49,17.58l-1.69,2.43a11.82,11.82,0,0,1,1.62.92C791,563.52,792.13,571.41,788,577.31Z" style="fill:#787878"/><path d="M765,574.42a9.78,9.78,0,0,0-11.38-7.92A9.82,9.82,0,1,0,734.31,570l3.44,19.33,19.32-3.49A9.84,9.84,0,0,0,765,574.42Z" style="fill:#cc8599"/><path d="M747.58,549.15c2.64-3.79,2-8.77-1.33-11.11s-8.24-1.18-10.88,2.62l-2.13,3.05c-2.64,3.79-2,8.77,1.33,11.12s8.25,1.17,10.88-2.62Z" style="fill:#cc8599"/><path d="M768.05,544.15c2.64-3.8,2.05-8.77-1.32-11.12s-8.25-1.17-10.89,2.62l-2.12,3.05c-2.64,3.8-2.05,8.77,1.33,11.12s8.24,1.17,10.88-2.62Z" style="fill:#cc8599"/><path d="M781.79,553.71c2.64-3.8,2.05-8.77-1.32-11.12s-8.25-1.17-10.89,2.62l-2.12,3c-2.64,3.8-2.05,8.77,1.32,11.12s8.25,1.17,10.89-2.62Z" style="fill:#cc8599"/><path d="M784.21,574.65c2.64-3.8,2-8.77-1.32-11.12s-8.25-1.17-10.89,2.62l-2.12,3.05c-2.64,3.8-2,8.77,1.32,11.12s8.25,1.17,10.89-2.62Z" style="fill:#cc8599"/><rect x="736.68" y="537.77" width="8.37" height="11.16" rx="3.94" transform="translate(443.12 -325.82) rotate(34.83)" style="fill:#d993a7"/><rect x="738.23" y="560.53" width="12.09" height="11.16" rx="5.25" transform="translate(456.74 -323.69) rotate(34.83)" style="fill:#d993a7"/><rect x="757.15" y="532.76" width="8.37" height="11.16" rx="3.94" transform="translate(443.93 -338.41) rotate(34.83)" style="fill:#d993a7"/><rect x="770.89" y="542.32" width="8.37" height="11.16" rx="3.94" transform="translate(451.85 -344.55) rotate(34.83)" style="fill:#d993a7"/><rect x="773.31" y="563.26" width="8.37" height="11.16" rx="3.94" transform="translate(464.25 -342.18) rotate(34.83)" style="fill:#d993a7"/><path d="M551.61,754.66c-85.1-7.14-160.23-54.93-183.95-71.46.54-.73,1.07-1.45,1.62-2.17,23.15-30.84,49.32-54.09,73.64-61.23,62.09-18.24,94.17,47.52,107.54,127.61C550.86,749.81,551.25,752.23,551.61,754.66Z" style="fill:#dbcdae"/><path d="M520.31,900c28.49-32.14,39.93-83.41,32.23-139-.29-2.14-.61-4.28-.93-6.41-85.1-7.14-160.23-54.93-183.95-71.46-37.36,50.68-66.47,120.88-66.47,174.19,0,18.09,3.17,32,8.77,42.65Z" style="fill:#f2dfc0"/><path d="M504.77,900h53.41l-31-176.25a40.25,40.25,0,0,0-39-32.84c-.55,0,.56,0,0,0-19.89.7-37.26,16.37-39,36.2a39.91,39.91,0,0,0,2.5,17.9Z" style="fill:#f9e6c5"/><path d="M291.37,516.31a13.43,13.43,0,0,1-17.12-.86C245.32,488.19,247.93,432,249.83,391c0,0,.08-1.77.09-1.84a26.57,26.57,0,0,1,10.78-19.81,29.89,29.89,0,0,1,26.08-4.57l.23.07c10.13,3.14,21.88,6,33.23,8.79,33.34,8.17,64.83,15.88,78.71,33.38a12.15,12.15,0,0,1-1.69,16.81L292.15,515.68Q291.77,516,291.37,516.31Z" style="fill:#787878"/><path d="M267.62,393.4c-1.59,34.36-4.17,82.82,18.28,104l93.65-81.82c-13.85-17.47-60.82-23.47-94.15-33.78C276.9,379.31,268.2,384.58,267.62,393.4Z" style="fill:#d993a7"/><path d="M281.14,417.45c.58-8.81,9.28-14.08,17.78-11.62,21.82,6.75,49.47,11.65,69.86,19.13l10.77-9.41c-13.85-17.47-60.82-23.47-94.15-33.78-8.5-2.46-17.2,2.81-17.78,11.63C266,427.57,263.49,475.67,285.55,497,278.4,473.23,280,441.81,281.14,417.45Z" style="fill:#cc8599"/><path d="M581.21,492.63c4.77,2.93,10.56,1.42,13.51-3.67,18.32-31.59,6.44-86.41-2.24-126.43,0,0-.37-1.73-.39-1.8C590.29,353,586,346.7,580,343a20.42,20.42,0,0,0-21.59-.18l-.18.11c-7.53,4.75-16.4,9.52-25,14.13-25.17,13.54-48.94,26.33-57,45.83-2.35,5.71-.49,12.77,4.28,16.26l99.87,73C580.72,492.32,581,492.48,581.21,492.63Z" style="fill:#787878"/><path d="M575.28,372.26c6.61,30.48,16.16,73.43,3.24,95.71l-80.89-59.1c7.27-17.69,40.38-30.11,62.91-44.34C566.32,361.06,573.46,364.46,575.28,372.26Z" style="fill:#d993a7"/><path d="M576.68,378.74c-.47-2.21-.94-4.38-1.4-6.48-1.82-7.8-9-11.2-14.74-7.73-22.53,14.23-55.64,26.65-62.91,44.34l17.74,13C522.77,404.7,554.35,392.5,576.68,378.74Z" style="fill:#cc8599"/><path d="M626.28,530.5C616.52,460.07,536.87,392.22,446,392.7c-.91-3.52-3.65-7.48-5.37-10-6.36-9.81-19.55-14.53-24.11-11-2.49,2.25-1.87,9.42,5.56,15.82-.49-.27-1-.55-1.45-.84-7.15-4.33-15.14-2.71-16.3.43-1.06,2.86,3,7,10,8.56-96.13,17.67-161.87,110.67-151.54,185.19,10.6,76.53,97.42,104.58,197.78,90.67S636.88,607,626.28,530.5Z" style="fill:#f9e6c5"/><path d="M603.49,519.77C612,581,551.24,621.47,471,632.6s-149.74-11.31-158.23-72.54,47.21-138,127.5-149.17S595,458.55,603.49,519.77Z" style="fill:#787878"/><path d="M376.44,672.66c25.77,3.44,54.37,3,84.16-1.12C561,657.63,636.88,607,626.28,530.5,619.22,479.56,575.6,430,517.62,406.62c38.14,28.66,65,69.77,70.82,111.5,11.44,82.55-64,136.24-164.41,150.15C407.92,670.51,391.62,672.77,376.44,672.66Z" style="opacity:0.11"/><path d="M472,589.94a.36.36,0,0,0,0,.1L472,590Z" style="fill:#6e6e6e"/><path d="M506.78,625.08c-3.55,15-12.42,30.67-24.88,32.4S456.46,646.36,449,632.8c13.76-6.24,23.3-17,24.95-28.76C478.82,615.14,491.37,623,506.78,625.08Z" style="fill:#6e6e6e"/><path d="M506.78,625.08c-3.55,15-12.42,30.67-24.88,32.4S456.46,646.36,449,632.8c13.76-6.24,23.3-17,24.95-28.76C478.82,615.14,491.37,623,506.78,625.08Z" style="fill:#a64646"/><path d="M474.7,605.59c-.27-.52-.53-1-.76-1.55,0,.26-.1.51-.15.78Z" style="fill:#ba4e4e"/><path d="M500.41,623.84c-5.07,12.46-14,23.75-25.59,25.36-6,.83-12-1-17.56-4.5,7.1,8.19,15.95,14,24.64,12.78,12.46-1.73,21.33-17.41,24.88-32.4A58.34,58.34,0,0,1,500.41,623.84Z" style="fill:#ba4e4e"/><path d="M514.33,556.3c-22.68,3.14-40,17.45-42.31,33.64a.36.36,0,0,0,0,.1L472,590c-6.64-15-27.19-24-49.87-20.87-26,3.61-45,21.9-42.34,40.88s25.85,31.42,51.86,27.81a64.73,64.73,0,0,0,10.2-2.25c8.63,16.14,24.34,31.92,41.16,29.59s27.56-21.68,31.52-39.51a63.71,63.71,0,0,0,9.37-.61c26-3.61,45-21.9,42.34-40.87S540.35,552.69,514.33,556.3ZM481.9,657.48c-12.55,1.74-25.44-11.12-32.91-24.68,13.76-6.24,23.3-17,24.95-28.76,4.88,11.1,17.43,19,32.84,21C503.23,640.07,494.36,655.75,481.9,657.48Z" style="fill:#6e6e6e"/><g style="mask:url(#mask)"><ellipse cx="527.95" cy="542.74" rx="75.22" ry="66.05" transform="matrix(0.99, -0.14, 0.14, 0.99, -69.5, 77.61)" style="fill:#fff"/><path d="M590.17,536.63c-2.39,17.14-14.46,31-30.67,33.23s-31.59-7.79-38.57-23.62A46.29,46.29,0,0,1,517.48,534c-3.12-22.59,10.61-43.15,30.68-45.93s38.89,13.27,42,35.85A45.39,45.39,0,0,1,590.17,536.63Z" style="fill:#8cc9ff"/><path d="M585.17,532.18a9.88,9.88,0,0,1,3.69,10.63c-4.12,14.2-15.15,25.08-29.36,27.05-14.48,2-28.3-5.79-36.06-18.76a8.66,8.66,0,0,1,.31-9.46l.12-.16a8.76,8.76,0,0,1,14.42.6c5.06,7.68,13.21,12.21,21.67,11,9.09-1.28,16.06-8.78,18.4-18.56a4.28,4.28,0,0,1,6.7-2.47Z" style="fill:#a6e0ff"/><path d="M579.18,528.51c-.48,12.62-8.32,23.09-19.22,24.62-11.77,1.62-23-7.78-26-21.38-.2-.9-.37-1.81-.49-2.74-2.09-15,6.39-28.67,18.94-30.41s24.41,9.06,26.49,24.12A31.53,31.53,0,0,1,579.18,528.51Z" style="fill:#516070"/><ellipse cx="518.17" cy="525.57" rx="11.01" ry="7.34" transform="translate(-67.24 76.1) rotate(-7.89)" style="fill:#fff"/></g><g style="mask:url(#mask-2)"><ellipse cx="375.3" cy="563.89" rx="75.22" ry="66.05" transform="matrix(0.99, -0.14, 0.14, 0.99, -73.85, 56.86)" style="fill:#fff"/><path d="M437.52,557.79c-2.39,17.13-14.47,31-30.67,33.22s-31.6-7.79-38.57-23.62a46.29,46.29,0,0,1-3.45-12.23c-3.13-22.58,10.61-43.15,30.68-45.93s38.88,13.27,42,35.85A45.46,45.46,0,0,1,437.52,557.79Z" style="fill:#8cc9ff"/><path d="M431.82,552.83a11,11,0,0,1,4,12.3c-4.37,13.62-15.19,24-29,25.88-14.48,2-28.29-5.78-36-18.73a8.69,8.69,0,0,1,.31-9.51l.11-.16a8.75,8.75,0,0,1,14.4.6c5,7.7,13.2,12.24,21.67,11.07,9.34-1.31,16.44-9.19,18.58-19.36a3.71,3.71,0,0,1,5.73-2.24Z" style="fill:#a6e0ff"/><path d="M426.53,549.67c-.49,12.61-8.33,23.09-19.23,24.61-11.77,1.62-22.94-7.77-26-21.38-.21-.89-.37-1.81-.5-2.74-2.09-15,6.39-28.66,18.93-30.4s24.42,9.06,26.5,24.11A33.51,33.51,0,0,1,426.53,549.67Z" style="fill:#516070"/><ellipse cx="365.51" cy="546.73" rx="11.01" ry="7.34" transform="matrix(0.99, -0.14, 0.14, 0.99, -71.59, 55.35)" style="fill:#fff"/></g><path d="M486.49,577.66c.8,5.77-5.22,13.22-13.75,14.41s-16.35-4.36-17.15-10.13,5.72-9.59,14.25-10.77S485.69,571.89,486.49,577.66Z" style="fill:#ad9191"/><path d="M479,577.41c.56,4-3.65,9.25-9.62,10.08s-11.44-3-12-7.09,4-6.71,10-7.54S478.39,573.37,479,577.41Z" style="fill:#bf9f9f"/><path d="M699.59,569c-26-1.06-51.9-8.56-77.88-10.19a4.84,4.84,0,0,1-4.54-4.82,4.36,4.36,0,0,1,4.63-4.36c26,1.64,51.9,9.14,77.88,10.19a4.71,4.71,0,0,1,4.54,4.71A4.49,4.49,0,0,1,699.59,569Z" style="fill:#998080"/><path d="M695.49,612.81a5,5,0,0,1-1-.2c-25.92-7.9-51.77-21.51-77.7-28.5a4.66,4.66,0,0,1-3.36-5.59,4.43,4.43,0,0,1,5.55-3.25c25.92,7.34,51.78,21,77.7,28.55a4.78,4.78,0,0,1,3.36,5.67A4.34,4.34,0,0,1,695.49,612.81Z" style="fill:#998080"/><path d="M618.29,532.9a4.7,4.7,0,0,1-4.42-3.65,4.51,4.51,0,0,1,3.46-5.44c26-5.23,52-3.86,78.06-8.19a4.86,4.86,0,0,1,5.48,3.71,4.41,4.41,0,0,1-3.47,5.36c-26,4.64-52,3.25-78,8.14A4.77,4.77,0,0,1,618.29,532.9Z" style="fill:#998080"/><path d="M294,614.34c-28.76,10.51-55.92,26.23-85,35.84a4.5,4.5,0,0,1-5.71-3,4.67,4.67,0,0,1,3-5.78c29-9.61,56.2-25.33,85-35.84a4.33,4.33,0,0,1,5.67,2.84A4.87,4.87,0,0,1,294,614.34Z" style="fill:#998080"/><path d="M228.88,689.86a4.33,4.33,0,0,1-5.32-2,4.81,4.81,0,0,1,1.81-6.36c27-16.26,52.37-37.83,79.57-53.41a4.5,4.5,0,0,1,6.2,1.79,4.66,4.66,0,0,1-1.85,6.25C282,651.44,256.64,673,229.71,689.46A4.86,4.86,0,0,1,228.88,689.86Z" style="fill:#998080"/><path d="M293.39,587.36a4.18,4.18,0,0,1-.88.2c-30.79,3.88-59.75,13.77-90.33,18.33a4.38,4.38,0,0,1-5-4,4.85,4.85,0,0,1,4-5.26c30.52-4.77,59.48-14.63,90.35-18.27a4.52,4.52,0,0,1,5,4.07A4.66,4.66,0,0,1,293.39,587.36Z" style="fill:#998080"/><path d="M1599.5,279.5V175.94a93.17,93.17,0,0,0-60-42.89,95.48,95.48,0,0,0-18.6-2.27C1498,89,1452.24,60.5,1399.5,60.5a140.29,140.29,0,0,0-86.28,29.25A95.24,95.24,0,0,0,1224.31,104,93.86,93.86,0,0,0,1166,93.42c-40.86,5.66-71.82,36.31-78.2,73.42-36.1,23.53-58.29,55.47-58.29,90.66h175a83.77,83.77,0,0,0-3,22Z" style="fill:url(#linear-gradient-3)"/><path d="M1599.5,268.6c-27.9-6.71-81.31-11.81-146.26-13.75,3.4-1.44,5.26-3,5.26-4.6,0-7.59-41-13.75-91.5-13.75-37.85,0-70.33,3.45-84.25,8.38-26.13-4.81-66-7.88-110.75-7.88-78.7,0-142.5,9.51-142.5,21.25s62.47,21.05,140,21.25c1.18,13.83,101.66,25,225.47,25,90.55,0,168.62-6,204.5-14.6Z" style="fill:#6aafdb"/><path d="M711.5,207.5c0-14.23-9.39-27.6-25.88-39.24.22-38.35-25.88-74.36-66-86.41A92.91,92.91,0,0,0,541.82,92.7C516.54,61.07,475.65,40.5,429.5,40.5a150.3,150.3,0,0,0-50,8.48C368.94,27.2,350.39,10.11,327.77.5H242a106.07,106.07,0,0,0-50.88,44.17,115.19,115.19,0,0,0-63.82-6.54C75.12,47.4,37.73,89.35,36.46,136.24,21.82,147.62,9.69,160.08.5,173.36V233.5h574a96.16,96.16,0,0,0-3.61-26Z" style="fill:url(#linear-gradient-4)"/><path d="M502,188.5c-108.32,0-197.43,9.22-208.37,21q-8,0-16.13,0c-126.18,0-234,6.22-277,15v17c43,8.78,150.82,15,277,15,159.56,0,289.71-9.95,296.69-22.44,80.13-3.3,137.31-11.93,137.31-22.06C711.5,199,617.7,188.5,502,188.5Z" style="fill:#6aafdb"/><g style="opacity:0.6000000000000001"><path d="M1245.88,900.5h-70c-4.74-49.86-8.9-99.13-14.16-148.43a13,13,0,0,0-14.29-11.52,12.17,12.17,0,0,0-11,14q1,7.34,2,14.69c1.34,10.09-5.37,18.9-14.81,19.64s-18.45-6.69-20.3-16.54q-4.39-23.84-9.4-47.49c-1.92-9.29-11.65-15.8-21.54-14.61s-15.78,9.4-13.31,18.41c15.13,56.29,26.31,113.71,35.73,171.9h-36c-16-85.36-39.35-169.54-75.63-247.56a772.41,772.41,0,0,0-40.57-76.2,24.62,24.62,0,0,1-2.58-5.67c-4.95-15.5,10.27-32,37.23-38.8,30.27-7.73,61.15,2,68.07,22q12.79,35,23.25,71.07c4.82,15.87,23.57,26.64,42.65,23.86s32.91-18.82,30.23-35.84q-2.68-16-5.67-31.94c-2.27-11.64,8.15-23.46,23.75-26.32s29.56,4.84,30.77,17c5.63,53,9.22,105.54,11.93,157.83a9.82,9.82,0,0,0,11,9.22,11.47,11.47,0,0,0,10.31-11.34q-.33-14.31-.72-28.65c-.18-6,5-11.49,11.68-12.23s12.14,3.63,12.08,9.72C1246.36,765.16,1244.08,832.23,1245.88,900.5Z" style="fill:#78cffa"/><path d="M1018,813.72h0c-7.13,1.8-15.85-3.15-19.8-10.93a575.72,575.72,0,0,0-56.76-91.18c-5.52-7.15-3.31-14.7,5.32-17.12h0c8.62-2.41,20,1.42,25,8.77a638,638,0,0,1,52.73,92.82C1028.13,804,1025.1,811.94,1018,813.72Z" style="fill:#78cffa"/><path d="M1110.41,487.29h0c-12.62,3-24.85-1.37-27.56-9.67q-11.62-36.54-25.61-71.94c-3.25-8,5.86-18.36,20.6-23.07h0c14.74-4.72,29-1.44,31.5,7.23q11.36,37.74,20.44,76.21C1131.8,474.85,1123,484.34,1110.41,487.29Z" style="fill:#78cffa"/><path d="M1262.2,628.5h0c-16.72.72-29.18-10-28.32-24.17q1.93-27.93,3.69-56.25c.78-14.37,16.77-27.66,36.22-29.26h0c19.43-1.6,33.87,9.54,31.68,24.39q-4.1,29.14-8.41,57.76C1294.76,615.58,1278.91,627.78,1262.2,628.5Z" style="fill:#78cffa"/></g><path d="M840.35,84.85a27.78,27.78,0,0,0-6.8.82l4.34-11.38A35.27,35.27,0,0,0,839,70.87c.26-1,.44-1.79.56-2.33l.22-1v-1a14.45,14.45,0,0,0-22-12.15,14.45,14.45,0,0,0-5.18,6.09l-.33.71a18.89,18.89,0,0,0-2.34-3.81,13.71,13.71,0,0,0-11-5.09A14.46,14.46,0,0,0,792,54a22.11,22.11,0,0,0-8.64-1.77,18.67,18.67,0,0,0-6.88,1.25,15.2,15.2,0,0,0-6.18-1.25,14.56,14.56,0,0,0-9,3,14.47,14.47,0,0,0-9.14-3A14.31,14.31,0,0,0,745,54.14a27.16,27.16,0,0,0-20.13.17,24.55,24.55,0,0,0-8.29,5.85,20.76,20.76,0,0,0-6.06-5,23.85,23.85,0,0,0-11.67-2.91,25.33,25.33,0,0,0-9.86,1.9,14.65,14.65,0,0,0-7.24-1.9,14.32,14.32,0,0,0-9.27,3.29,14.93,14.93,0,0,0-20.18,1.36A13.28,13.28,0,0,0,650.72,59a13.91,13.91,0,0,0-1.59-2.08,14.62,14.62,0,0,0-10.87-4.65,15,15,0,0,0-5.17.91A16.2,16.2,0,0,0,629,42.61a15,15,0,0,0-11.16-4.76,14.86,14.86,0,0,0-11.2,4.9,16.59,16.59,0,0,0-4,11.47v4.87h-2.69V54.22c0-5.91-2.26-9.58-4.16-11.62a15.07,15.07,0,0,0-11.15-4.75,14.81,14.81,0,0,0-11.32,5,16.69,16.69,0,0,0-3.88,11.38V88.57a27.58,27.58,0,0,0-14.19-3.72A25.94,25.94,0,0,0,535.4,93.4c-4.83,5.37-7.28,12.91-7.28,22.41V247.25c0,10.14,2.64,17.95,7.84,23.21s13.08,8,23.35,8h83.47c8.15,0,14.72-2.15,19.54-6.39a22.9,22.9,0,0,0,7.81-17.69,23.28,23.28,0,0,0-7.75-17.65c-4.88-4.43-11.47-6.67-19.6-6.67H582.7V115.81c0-1.54-.07-3-.2-4.45a16.56,16.56,0,0,0,2.13.15,15,15,0,0,0,11.13-4.77c1.91-2,4.18-5.71,4.18-11.63V87.65h2.69v7.46a16.72,16.72,0,0,0,3.9,11.4,14.83,14.83,0,0,0,11.3,5A15.06,15.06,0,0,0,629,106.74a15.28,15.28,0,0,0,1.11-1.37,21.38,21.38,0,0,0,4.88,3.49,23.35,23.35,0,0,0,10.91,2.58,26.94,26.94,0,0,0,8.22-1.2c.66-.21,1.32-.46,2-.73a14.53,14.53,0,0,0,16.66-1.37,14.38,14.38,0,0,0,9.33,3.37,14.61,14.61,0,0,0,10.86-4.67,13.94,13.94,0,0,0,1.62-2.12,14.07,14.07,0,0,0,1.41,1.89,14.48,14.48,0,0,0,11,4.9,15,15,0,0,0,4.21-.6,17.52,17.52,0,0,0,4.19,6.86,22,22,0,0,0,3.6,3l-.78,0a32.37,32.37,0,0,0-5.56.49c-17,3-28.72,19.11-27.48,36.89-14.88,5.73-24.07,22.06-21.05,39.16l1.26,7.18a36.37,36.37,0,0,0,10.53,20,29.09,29.09,0,0,1,8.72,15.77l.3,1.67a23.35,23.35,0,0,1,.42,4.85,34.15,34.15,0,0,0,.49,6.92A35,35,0,0,0,703.47,278a35.62,35.62,0,0,0,17.33,4.48,37,37,0,0,0,19.82-5.77l8.21-5.19a16.75,16.75,0,0,1,13-2.11l9,2.25a37.56,37.56,0,0,0,9,1.1,35.78,35.78,0,0,0,34.74-25.56V252c0,8.67,2.29,15.7,6.83,20.89a24.32,24.32,0,0,0,18.88,8.44,25.11,25.11,0,0,0,18.92-8C864,268.2,866.42,261,866.42,252V114.18c0-9-2.37-16.14-7-21.26A25.07,25.07,0,0,0,840.35,84.85Zm-57,55.94a35.45,35.45,0,0,0-22.23-24,23.29,23.29,0,0,0,3.68-6.41,14.91,14.91,0,0,0,16.41-3.52,15.89,15.89,0,0,0,4.09-11.25V87.57c0-2.39.07-4.42.21-6.06a12.62,12.62,0,0,0,2.82.34c.25,0,.49,0,.73,0l6.5,16.36a13.77,13.77,0,0,0-8,3.38,13.73,13.73,0,0,0,3.81,22.56,25.62,25.62,0,0,0,10.34,1.74,24.55,24.55,0,0,0,11.52-2.45q.75-.39,1.47-.84v41.05C809.59,150.24,797.35,141,783.33,140.79ZM813.62,225a24,24,0,0,1-1.26-4.7l-.46-2.6a29,29,0,0,1,2.74-17.63V228C814.34,227,814,226,813.62,225Z" style="fill:#f9e6c5"/><path d="M1069.9,157.27c-.58-1.1-1.21-2.34-1.89-3.67-6.78-13.27-17-33.33-34.18-33.33a21.23,21.23,0,0,0-3.28.26c-16.33,2.6-23.22,17-27.95,37.3a38.73,38.73,0,0,0-9.75-12.77l-3.46-19.62a14,14,0,0,0-22.81-8.3L948.91,132c-1.66-.05-3.36-.08-5.06-.08-3.71,0-7.33.15-10.81.45l-18.11-15.19a14,14,0,0,0-22.81,8.3l-4.75,26.91c-.47.56-.92,1.13-1.35,1.7-5.26,7-7.93,14.52-7.93,22.29a21.1,21.1,0,0,0,7.29,16.3,23.54,23.54,0,0,0,8.89,4.94,46.22,46.22,0,0,0-11.06,9,41.92,41.92,0,0,0-10.83,28.92,44,44,0,0,0,6.45,23.1A45.26,45.26,0,0,0,897,275.38a55.85,55.85,0,0,0,26.11,6,72.67,72.67,0,0,0,28-5.25,97.43,97.43,0,0,0,16-8.6,58.68,58.68,0,0,0,5.69,6.45,25.42,25.42,0,0,0,17.29,7.41c13.32,0,21.45-11.49,24.32-16.42,3.86-6.64,8-16.45,12.76-30,4.52-12.95,7.29-29,10-44.57.87-5.08,2-11.52,3.2-17.59l1.93,2.14c3.86,4.32,8.71,6.7,13.66,6.7a15.63,15.63,0,0,0,8.15-2.32A16.65,16.65,0,0,0,1069.9,157.27ZM919.21,189.44c1-1.49,2.44-3.56,4.34-6.5a19.81,19.81,0,0,1,6.91-6.81c1.45-.79,5.1-2.13,13.39-2.13,8.7,0,10.61,1.94,10.62,1.94a13.72,13.72,0,0,1,2,5.09c-3.48.94-6.8,1.78-9.92,2.53-5.53,1.32-12.34,2.8-20.23,4.41Zm35.38,41.16-.09.16a17.74,17.74,0,0,1-7.63,6.73,27.07,27.07,0,0,1-12.8,3c-4.42,0-6.41-1.38-7.53-2.41a6.18,6.18,0,0,1-2.26-4.94c0-2.32.68-2.88,1.08-3.22a15.21,15.21,0,0,1,5.88-3.23c3.27-.85,9.33-2.23,18-4.09,2.81-.6,5.4-1.19,7.8-1.77C956.42,226.84,955.21,229.56,954.59,230.6Z" style="fill:#f9e6c5"/><path d="M590.6,48.87V63.74h22.69V48.87a7,7,0,0,1,1.43-4.78,4.85,4.85,0,0,1,3.77-1.59,5,5,0,0,1,3.84,1.58,6.8,6.8,0,0,1,1.47,4.79V89.76a6.84,6.84,0,0,1-1.48,4.81,5,5,0,0,1-3.83,1.59,4.75,4.75,0,0,1-3.78-1.61,7,7,0,0,1-1.42-4.79V72.31H590.6V89.76a6.84,6.84,0,0,1-1.49,4.81,5,5,0,0,1-3.82,1.59,4.79,4.79,0,0,1-3.79-1.61,7.08,7.08,0,0,1-1.41-4.79V48.87a7.09,7.09,0,0,1,1.39-4.78,4.82,4.82,0,0,1,3.81-1.59,5,5,0,0,1,3.84,1.58A6.8,6.8,0,0,1,590.6,48.87Z" style="fill:#787878"/><path d="M659.52,90.71V89.47a21.21,21.21,0,0,1-3.65,3.68,13.32,13.32,0,0,1-4.17,2.22,17.09,17.09,0,0,1-5.17.72,13.31,13.31,0,0,1-6.28-1.45,10.62,10.62,0,0,1-4.31-4q-1.8-3.08-1.8-8.85V62.64a6.25,6.25,0,0,1,1.31-4.33,4.46,4.46,0,0,1,3.47-1.44,4.63,4.63,0,0,1,3.54,1.45,6.19,6.19,0,0,1,1.34,4.32V78.11a23.82,23.82,0,0,0,.57,5.65,6.84,6.84,0,0,0,2,3.57,5.84,5.84,0,0,0,4,1.29,8.08,8.08,0,0,0,4.6-1.45,8.42,8.42,0,0,0,3.15-3.79q.81-2,.81-9V62.64a6.15,6.15,0,0,1,1.35-4.32,4.58,4.58,0,0,1,3.5-1.45,4.46,4.46,0,0,1,3.47,1.44,6.25,6.25,0,0,1,1.31,4.33v28a6,6,0,0,1-1.25,4.14,4.48,4.48,0,0,1-6.52,0A5.8,5.8,0,0,1,659.52,90.71Z" style="fill:#787878"/><path d="M687,62.22v1.16a17,17,0,0,1,5.57-4.93,14.88,14.88,0,0,1,7-1.58,13.85,13.85,0,0,1,6.83,1.67,10.54,10.54,0,0,1,4.5,4.7,11.41,11.41,0,0,1,1.24,3.83,39.45,39.45,0,0,1,.28,5.24v18A6.38,6.38,0,0,1,711,94.68a4.78,4.78,0,0,1-6.95,0,6.33,6.33,0,0,1-1.35-4.35V74.18a16.05,16.05,0,0,0-1.33-7.31c-.88-1.69-2.65-2.53-5.29-2.53a7.83,7.83,0,0,0-4.71,1.54,8.91,8.91,0,0,0-3.11,4.23q-.7,2.16-.71,8.07V90.29a6.23,6.23,0,0,1-1.36,4.4,4.6,4.6,0,0,1-3.52,1.47,4.37,4.37,0,0,1-3.44-1.52,6.33,6.33,0,0,1-1.34-4.35V62.36a6.12,6.12,0,0,1,1.2-4.13,4.19,4.19,0,0,1,3.29-1.36,4.46,4.46,0,0,1,2.3.6,4.34,4.34,0,0,1,1.65,1.81A6.39,6.39,0,0,1,687,62.22Z" style="fill:#787878"/><path d="M757.54,64V92a29.28,29.28,0,0,1-1,8.29,13.21,13.21,0,0,1-3.29,5.73,13.8,13.8,0,0,1-5.93,3.36,32.29,32.29,0,0,1-9.12,1.1,26.59,26.59,0,0,1-8.92-1.4,15.33,15.33,0,0,1-6-3.61,6.59,6.59,0,0,1-2.12-4.55,3.74,3.74,0,0,1,1.2-2.88,4.09,4.09,0,0,1,2.9-1.12,4.76,4.76,0,0,1,3.72,1.88c.52.64,1.06,1.28,1.61,1.93a9.57,9.57,0,0,0,1.84,1.66,7.28,7.28,0,0,0,2.43,1,14.39,14.39,0,0,0,3.25.33,13.17,13.17,0,0,0,5.83-1,6,6,0,0,0,2.9-2.92,11.74,11.74,0,0,0,1-4q.15-2.15.21-6.88a15.78,15.78,0,0,1-5.15,4.74,14,14,0,0,1-6.95,1.63,14.68,14.68,0,0,1-8.48-2.48,15.71,15.71,0,0,1-5.57-6.94,25.47,25.47,0,0,1-1.95-10.3A24.48,24.48,0,0,1,721,67.7a16.61,16.61,0,0,1,3.38-5.91,14.72,14.72,0,0,1,5.07-3.63,16,16,0,0,1,6.3-1.22,15.1,15.1,0,0,1,7.11,1.58,17.28,17.28,0,0,1,5.6,4.94V62.15a5.67,5.67,0,0,1,1.23-3.9,4.1,4.1,0,0,1,3.19-1.38c1.86,0,3.1.61,3.72,1.82A12,12,0,0,1,757.54,64Zm-28,12.25q0,5.88,2.56,8.88a8.32,8.32,0,0,0,6.64,3,8.67,8.67,0,0,0,4.55-1.29,9.5,9.5,0,0,0,3.49-3.89,13.73,13.73,0,0,0,1.34-6.32q0-5.91-2.6-9.21a8.31,8.31,0,0,0-6.85-3.29A8.06,8.06,0,0,0,732,67.24Q729.54,70.39,729.54,76.2Z" style="fill:#787878"/><path d="M775.94,82.22v8.07a6.19,6.19,0,0,1-1.38,4.4,4.58,4.58,0,0,1-3.5,1.47,4.41,4.41,0,0,1-3.43-1.48,6.34,6.34,0,0,1-1.35-4.39V63.38q0-6.51,4.71-6.51a4,4,0,0,1,3.47,1.52,8.41,8.41,0,0,1,1.17,4.5,17,17,0,0,1,3.55-4.5,7.39,7.39,0,0,1,4.87-1.52A12.5,12.5,0,0,1,790,58.39c1.91,1,2.87,2.36,2.87,4a3.86,3.86,0,0,1-1.22,2.92A3.8,3.8,0,0,1,789,66.5a12.58,12.58,0,0,1-2.57-.65,11.79,11.79,0,0,0-3.59-.66,5.24,5.24,0,0,0-3.47,1.12,7.19,7.19,0,0,0-2.09,3.31,23.43,23.43,0,0,0-1,5.22Q775.95,77.85,775.94,82.22Z" style="fill:#787878"/><path d="M807,97.37l.89-2.16L796,65.26a11,11,0,0,1-1.1-3.75,4.34,4.34,0,0,1,.64-2.3,4.61,4.61,0,0,1,1.75-1.7,4.54,4.54,0,0,1,2.32-.64,3.78,3.78,0,0,1,3.15,1.33,12.31,12.31,0,0,1,1.87,3.8l8.18,23.79,7.75-22.12a38.24,38.24,0,0,1,1.67-4.21,5,5,0,0,1,1.57-2.06,4.4,4.4,0,0,1,2.35-.53A4.32,4.32,0,0,1,829.84,59a4.32,4.32,0,0,1,.55,2.09c-.1.45-.25,1.09-.46,1.91s-.48,1.66-.78,2.51l-12.6,33a38.74,38.74,0,0,1-3.19,6.83,10.45,10.45,0,0,1-4.12,3.8,15.11,15.11,0,0,1-6.92,1.33,16.93,16.93,0,0,1-6.38-.92,3.35,3.35,0,0,1-2.12-3.36,3.28,3.28,0,0,1,1-2.57,4.36,4.36,0,0,1,3-.9,5.52,5.52,0,0,1,1.52.21,7.41,7.41,0,0,0,1.6.21,5.8,5.8,0,0,0,2.62-.49,4.68,4.68,0,0,0,1.71-1.72A25.76,25.76,0,0,0,807,97.37Z" style="fill:#787878"/><path d="M573.36,110.46V234.68h70.09q8.37,0,12.86,4.07A13.27,13.27,0,0,1,660.79,249a12.9,12.9,0,0,1-4.42,10.18q-4.43,3.92-12.92,3.91H560q-11.29,0-16.24-5t-5-16.18V110.46q0-10.48,4.72-15.72a15.88,15.88,0,0,1,12.4-5.24,16.48,16.48,0,0,1,12.63,5.18Q573.36,99.87,573.36,110.46Z" style="fill:#787878"/><path d="M825.3,246.67V108.83q0-9.56,4.25-14.44T841,89.5a15,15,0,0,1,11.65,4.83q4.43,4.83,4.42,14.5V246.67q0,9.66-4.48,14.49A15.1,15.1,0,0,1,841,266a14.35,14.35,0,0,1-11.35-5Q825.3,256,825.3,246.67Z" style="fill:#787878"/><path d="M990.72,266c8.32,0,14-8.51,15.68-11.45,3.53-6.08,7.44-15.32,12-28.27,4.24-12.16,6.94-27.82,9.55-43,1.83-10.61,4.36-25.28,7.12-33.57a1.84,1.84,0,0,1,3.21-.53c2.14,2.81,8.18,9.28,12.12,13.69,2.48,2.78,5.91,4.48,9.14,2.5a6.66,6.66,0,0,0,2.23-8.81c-5.63-10.6-15.66-33.65-29-31.54-15.54,2.47-19.33,24.45-24.58,54.87-2.47,14.34-5,29.18-8.72,39.78-.12.33-.24.65-.35,1,.07-5.89.12-11.29.16-16.17q.06-7.78.06-19,0-17.7-5-28.41a29.2,29.2,0,0,0-10.07-11.91l-4.12-23.4a4,4,0,0,0-6.54-2.38L953,136.76c-2.71-.15-5.54-.23-8.52-.23a111.68,111.68,0,0,0-14,.84l-.15-.15-21.18-17.77a4,4,0,0,0-6.54,2.38l-4.8,27.23A3.86,3.86,0,0,0,898,151a31.4,31.4,0,0,0-3.29,3.69q-5.92,7.92-5.93,16.3a11.19,11.19,0,0,0,3.9,8.79,13.52,13.52,0,0,0,9.25,3.43q5.94,0,7.74-2.15c1.21-1.44,3.26-4.41,6.18-8.91A29.6,29.6,0,0,1,926.29,162q6.12-3.37,18.22-3.38,14.09,0,18.57,5.88T968.15,183q-10,2.91-18.57,4.94T929,192.42q-12,2.45-15,3.14-14.43,3.15-22.7,12.34A32.11,32.11,0,0,0,883,230.14a34,34,0,0,0,5,17.93,35.28,35.28,0,0,0,14.26,13.09A45.78,45.78,0,0,0,923.79,266,62.32,62.32,0,0,0,948,261.51a98.2,98.2,0,0,0,22.29-13.44,68.48,68.48,0,0,0,10.13,13.33A15.58,15.58,0,0,0,990.72,266Zm-22.57-59.39q0,16.53-4.31,23.75A27.6,27.6,0,0,1,952.14,241a37.23,37.23,0,0,1-17.41,4.14q-8.84,0-14.32-5.07a16.1,16.1,0,0,1-5.47-12.28c0-4.66,1.55-8.28,4.66-10.89a25.16,25.16,0,0,1,9.78-5.24q5.11-1.34,18.45-4.19a159.55,159.55,0,0,0,20.32-5.41Z" style="fill:#787878"/><path d="M774,256.6c11.43,2.85,23.62-2,29.44-12.19a24.32,24.32,0,0,0,2.94-16.33A23.53,23.53,0,0,0,805,223.4a33.64,33.64,0,0,1-1.83-6.69l-.46-2.59a39.22,39.22,0,0,1,3.67-23.91,26.61,26.61,0,0,0,2.2-16.26l-1.27-7.17c-2.44-13.85-14.89-23.27-27.74-21l-.13,0a3.51,3.51,0,0,1-4.07-2.85L775,141c-2.44-13.85-14.89-23.27-27.75-21a22.48,22.48,0,0,0-13.07,7.49,3.53,3.53,0,0,1-4.38.77A22.41,22.41,0,0,0,715,125.72c-12.86,2.26-21.33,15.38-18.89,29.22l.34,1.93a3.52,3.52,0,0,1-2.86,4.07l-.12,0c-12.86,2.27-21.34,15.38-18.89,29.22l1.26,7.18a26.58,26.58,0,0,0,7.63,14.53,39.12,39.12,0,0,1,11.62,21.21l.3,1.68a34,34,0,0,1,.57,6.9,22.82,22.82,0,0,0,.34,4.86A24.93,24.93,0,0,0,709,263.92a26.4,26.4,0,0,0,26.92-1l8.22-5.19a26.75,26.75,0,0,1,20.8-3.36Z" style="fill:#787878"/><path d="M771.36,194.57a19.17,19.17,0,0,0-26.75,4.71,19.23,19.23,0,0,0-22,31.54l31.48,22.11,22-31.54A19.3,19.3,0,0,0,771.36,194.57Z" style="fill:#cc8599"/><path d="M712.24,183.54c-1.57-8.91-9.27-15-17.2-13.61s-13.08,9.76-11.5,18.67l1.26,7.18c1.57,8.92,9.27,15,17.2,13.61s13.08-9.76,11.5-18.67Z" style="fill:#cc8599"/><path d="M733.77,148.3c-1.57-8.92-9.27-15-17.2-13.61s-13.08,9.76-11.5,18.67l1.26,7.18c1.57,8.91,9.27,15,17.2,13.61s13.08-9.76,11.5-18.67Z" style="fill:#cc8599"/><path d="M766.06,142.61c-1.57-8.92-9.27-15-17.2-13.62s-13.08,9.76-11.5,18.68l1.26,7.17c1.57,8.92,9.27,15,17.2,13.62s13.08-9.76,11.5-18.68Z" style="fill:#cc8599"/><path d="M798.34,168.36c-1.57-8.92-9.27-15-17.19-13.62s-13.08,9.76-11.51,18.68l1.27,7.18c1.57,8.91,9.27,15,17.2,13.61s13.07-9.76,11.5-18.68Z" style="fill:#cc8599"/></g></svg>