<svg xmlns="http://www.w3.org/2000/svg" width="330" height="130" viewBox="0 0 330 130"><g id="Layer_3" data-name="Layer 3"><path d="M298.5,70a17.5,17.5,0,0,1,0,35H107V70H298.5m0-10H97v55H298.5a27.5,27.5,0,0,0,0-55Z" style="fill:#ccbfa2"/><path d="M119,60H298.39a27.5,27.5,0,0,1,23.69,41.47,5,5,0,0,1-7.81.92h0a5.06,5.06,0,0,1-.74-6.12A17.45,17.45,0,0,0,315.88,87c-.27-9.56-8.47-17-18-17H119Z" style="fill:#f9f0e0"/><rect x="112" y="74" width="191" height="13" rx="6.5" style="fill:#ebdad3;opacity:0.33"/><circle cx="64" cy="65" r="50" style="fill:#332d29"/><path d="M57.63,47c-2.21-4.86-9.85-9.16-19.54-10.73a2.27,2.27,0,0,0-2.63,2l-.82,7.39a2.25,2.25,0,0,0,2,2.49l18.71,2.08A2.26,2.26,0,0,0,57.63,47Z" style="fill:#6abad4"/><path d="M81.77,73.46c10.16,0,25.38-4.64,26.11-4.86a3,3,0,1,0-1.76-5.74C100.88,64.47,85.8,68.4,79,67.27a3,3,0,1,0-1,5.92A23.12,23.12,0,0,0,81.77,73.46Z" style="fill:#80a7ab"/><path d="M96.28,84c0-.16-.09-.32-.16-.49l.87.14C96.77,83.76,96.51,83.88,96.28,84Z" style="fill:#d49d50"/><path d="M109.13,64.93c-15.23.42-28.7,3.78-31.57,8.15a3.21,3.21,0,0,0-.37.71c-.53-.14-1.07-.26-1.61-.38L73.93,73l-1.22-.26-2.23-.45c-.74-.13-1.49-.29-2.25-.41s-1.53-.27-2.31-.39q-4-.65-8.28-1.14c-.89-.1-1.79-.21-2.69-.3-6.92-.72-14.4-1.18-22.27-1.32-.72,0-1.45,0-2.17,0h0L30,46a35.26,35.26,0,0,1,4.63-.39,187.2,187.2,0,0,1,22.8,1c23.48,2.51,41.44,9.26,49.46,16.15A20.39,20.39,0,0,1,109.13,64.93Z" style="fill:#50b3d4"/><circle cx="70.24" cy="57.48" r="6.75" style="fill:#469dba"/><circle cx="70.99" cy="56.73" r="6" style="fill:#fff"/><circle cx="70.99" cy="56.73" r="3" style="fill:#333"/><path d="M95,84.17a3.53,3.53,0,0,1-.13.54L96.29,84c-.06-.17-.11-.33-.17-.48-.39-.06-.77-.12-1.16-.2A2.48,2.48,0,0,1,95,84.17Z" style="fill:#e3ceaf"/><path d="M75.49,76.23c0,1.08,1.89,1.88,4.76,2.54-2.06-1.22-3.26-2.55-3.26-4a2.11,2.11,0,0,1,.1-.66C75.59,75.15,75.49,76,75.49,76.23Z" style="fill:#e3ceaf"/><path d="M95,83.31a3.1,3.1,0,0,1,0,.86,3.58,3.58,0,0,1-.14.54c-.28.13-.57.28-.87.4-1,.51-2.15,1-3.29,1.46C76.06,92.66,54.34,95.89,30,94l.48-25.26h0l2.17,0c7.87.14,15.35.6,22.27,1.32.9.09,1.8.2,2.69.3q4.32.49,8.28,1.14c.78.12,1.54.26,2.31.39s1.51.28,2.25.41l2.23.45,1.22.26,1.65.37c.54.12,1.08.24,1.61.38a1.19,1.19,0,0,0-.09.36c-1.5,1-1.61,1.86-1.61,2.08,0,1.08,1.89,1.88,4.76,2.54h0C83.5,80.67,88.84,82.26,95,83.31Z" style="fill:#afd6e3"/><path d="M90.06,80.42c-3.6-.53-7.11-1-9.8-1.65,3.24,1.9,8.58,3.49,14.7,4.54a3,3,0,0,0-2.53-2.55Z" style="fill:#c9b79b"/><path d="M95,85.23a3,3,0,0,0,.43-6l-2.37-.34c-7.49-1.09-14.57-2.11-14.57-4.19,0-.61.8-6,28.51-6a3,3,0,0,0,0-6c-23.87,0-34.51,3.7-34.51,12,0,7.28,7.84,8.41,19.71,10.13l2.36.34A3.25,3.25,0,0,0,95,85.23Z" style="fill:#9dcfd4"/><ellipse cx="30" cy="70" rx="12" ry="24" style="fill:#80a0ab"/><path d="M41,70c0,12.15-4.92,22-11,22-2.93,0-5.58-2.28-7.55-6h.05C30,86,36,75.93,36,63.5a32.28,32.28,0,0,0-3.36-14.86C37.44,51,41,59.67,41,70Z" style="fill:#c74236"/><path d="M36,63.5C36,75.93,30,86,22.5,86h-.05C20.32,82,19,76.3,19,70c0-12.15,4.92-22,11-22a5.87,5.87,0,0,1,2.64.64A32.28,32.28,0,0,1,36,63.5Z" style="fill:#c74f44"/><path d="M30,65l-4-.5v8l4,.5c1.1,0,2-1.79,2-4S31.1,65,30,65Z" style="fill:#fff"/><ellipse cx="26" cy="68.5" rx="2" ry="4" style="fill:#e6e6e6"/><path d="M64,5a60,60,0,1,0,60,60A60.07,60.07,0,0,0,64,5Zm0,110a50,50,0,1,1,50-50A50,50,0,0,1,64,115Z" style="fill:#ccbfa2"/><path d="M69,10a5,5,0,0,1-5,5A50.06,50.06,0,0,0,14,65,5,5,0,0,1,4,65,60.07,60.07,0,0,1,64,5,5,5,0,0,1,69,10Z" style="fill:#f9f0e0"/></g></svg>