<svg xmlns="http://www.w3.org/2000/svg" width="105" height="45" viewBox="0 0 105 45"><g id="Layer_2" data-name="Layer 2"><path d="M53.79,5.17a2.7,2.7,0,0,0-3.1,2l-1.37,5.32a2.73,2.73,0,0,0,2.16,3.36l.83.15a2.72,2.72,0,0,0,3.18-2.42L56,8.11A2.72,2.72,0,0,0,53.79,5.17Z" style="fill:#c4c43f"/><path d="M81.61,15.06l-.68-.49a2.73,2.73,0,0,1-.48-4L84,6.42A2.73,2.73,0,0,1,87.68,6h0A2.73,2.73,0,0,1,88.4,9.6l-2.87,4.68A2.73,2.73,0,0,1,81.61,15.06Z" style="fill:#dede47"/><path d="M92.13,15.87l-.31-.78a2.72,2.72,0,0,1,1.72-3.6l5.25-1.64a2.72,2.72,0,0,1,3.33,1.6h0a2.72,2.72,0,0,1-1.33,3.45l-4.93,2.41A2.72,2.72,0,0,1,92.13,15.87Z" style="fill:#c4c43f"/><path d="M98.07,20.35l.79-.3a2.73,2.73,0,0,1,3.58,1.78L104,27.1a2.72,2.72,0,0,1-1.65,3.31h0A2.71,2.71,0,0,1,98.92,29l-2.34-5A2.72,2.72,0,0,1,98.07,20.35Z" style="fill:#c4c43f"/><path d="M83.39,28.08l.73-.42a2.71,2.71,0,0,1,3.82,1.14l2.43,4.93a2.71,2.71,0,0,1-1.06,3.54h0a2.72,2.72,0,0,1-3.61-.78L82.55,32A2.73,2.73,0,0,1,83.39,28.08Z" style="fill:#c4c43f"/><path d="M62.88,38.39l-.09-5.49a2.72,2.72,0,0,0-3-2.66l-.84.08a2.73,2.73,0,0,0-2.43,3.17l.94,5.41a2.72,2.72,0,0,0,5.4-.51Z" style="fill:#c4c43f"/><path d="M46.71,29.29l.81.24A2.72,2.72,0,0,1,49.3,33.1l-1.95,5.14A2.72,2.72,0,0,1,44,39.89h0a2.74,2.74,0,0,1-1.9-3.18l1.14-5.37A2.72,2.72,0,0,1,46.71,29.29Z" style="fill:#c4c43f"/><path d="M17.24,32l.79-.31a2.71,2.71,0,0,1,3.59,1.74l1.62,5.25A2.73,2.73,0,0,1,21.63,42h0a2.72,2.72,0,0,1-3.44-1.35l-2.4-4.94A2.72,2.72,0,0,1,17.24,32Z" style="fill:#c4c43f"/><path d="M11.21,27.61l-.36.76A2.71,2.71,0,0,1,7,29.57L2.27,26.85a2.73,2.73,0,0,1-1.11-3.53h0a2.74,2.74,0,0,1,3.43-1.38l5.14,2A2.72,2.72,0,0,1,11.21,27.61Z" style="fill:#dede47"/><path d="M13.87,18.31l0,.84a2.71,2.71,0,0,1-3.1,2.52L5.28,20.9A2.7,2.7,0,0,1,3,18H3a2.72,2.72,0,0,1,2.68-2.55l5.49-.07A2.72,2.72,0,0,1,13.87,18.31Z" style="fill:#c4c43f"/><path d="M19.6,14.81l-.85,0A2.72,2.72,0,0,1,16,12l.25-5.49a2.72,2.72,0,0,1,2.63-2.6h0a2.72,2.72,0,0,1,2.79,2.43l.6,5.46A2.72,2.72,0,0,1,19.6,14.81Z" style="fill:#dede47"/><path d="M39.71,12,39,11.64a2.73,2.73,0,0,1-1.24-3.8L40.4,3.05A2.71,2.71,0,0,1,43.91,1.9h0a2.72,2.72,0,0,1,1.41,3.42L43.4,10.47A2.71,2.71,0,0,1,39.71,12Z" style="fill:#dede47"/><path d="M54.77,35.27l.62.14c1,.24,1.83.65,2.84.82,13.82,2.44,29.25-.92,32.79-1.77A13,13,0,0,0,101,22a12.56,12.56,0,0,0-.35-3.2A13,13,0,0,0,85,9.18c-6.81,1.6-18.95,2.91-24.58.88a11.39,11.39,0,0,0-1.93-.5L58,9.47C36.66,6,18,12.87,17.12,13.16A13,13,0,0,0,8.36,24.79,12.57,12.57,0,0,0,9,29.68a13,13,0,0,0,16.52,8.07c.13,0,14.6-4.79,29.21-2.48" style="fill:#54ba5b"/><path d="M101,22c-3.58-1.64-9.8-2.22-15.47-1.69-7.31,1-20.47,0-26-2.35l-1.06-.44c-22.17-7.07-43.8-2.81-44.74-2.3l-.58.17a12.94,12.94,0,0,0-4.75,9.4c3.88,1.8,10.85,2.36,16.77,1.58a92.25,92.25,0,0,1,31.11,3.57c1.41.44,2.84.86,4.3,1.22,14.27,3.86,30.2,1.72,33.94.73A22.06,22.06,0,0,0,97,31.22,13,13,0,0,0,101,22Z" style="fill:#3d8743"/><g style="opacity:0.6000000000000001"><path d="M58.07,16.56l1-5.91" style="fill:#beedc2"/><path d="M59.11,10.65l-1,5.91" style="fill:#beedc2"/><path d="M96.76,13.39A13.15,13.15,0,0,0,90,10a13,13,0,0,0-5.25.16c-6,1.41-15.42,3-21.63,1.5a21.87,21.87,0,0,0-4-1c-21.36-3.51-41.32,3.21-42.17,3.5a12.81,12.81,0,0,0-4,2.23l-.32.26a2.55,2.55,0,0,0,.09,3.9l.73.59a2.61,2.61,0,0,0,3.28-.1h0a7,7,0,0,1,2.17-1.2c.19-.07,19.18-6.52,39.16-3.26,1.57.16,2.37.81,3.47,1,7.09,1.25,17.74.06,24.63-1.57a7,7,0,0,1,6.3,1.6,2.51,2.51,0,0,0,3,.32l.85-.55A2.54,2.54,0,0,0,96.76,13.39Z" style="fill:#beedc2"/></g><path d="M24.83,19.65l-.61.58c-1.15,1.09-2.7,1.27-3.36.39l-2.31-3c-.59-.78-.26-2.15.78-3.13h0c1-1,2.41-1.24,3.16-.6l2.92,2.46C26.25,17,26,18.56,24.83,19.65Z" style="fill:#c4c43f"/><path d="M45.19,15.47l-.44-.71c-.83-1.36-.69-2.91.31-3.38l3.45-1.62c.89-.43,2.16.19,2.9,1.4h0c.75,1.21.72,2.61-.06,3.22l-3,2.34C47.47,17.4,46,16.82,45.19,15.47Z" style="fill:#dede47"/><path d="M81.67,18.86l-.84,0c-1.58,0-2.86-.86-2.76-2l.32-3.8c.08-1,1.24-1.77,2.66-1.81h0c1.42,0,2.63.69,2.76,1.67l.52,3.78C84.48,17.85,83.26,18.81,81.67,18.86Z" style="fill:#dede47"/><path d="M94.82,19.82l-.53-.65c-1-1.23-1.06-2.79-.14-3.38l3.21-2.07c.83-.53,2.17-.09,3.06,1h0c.9,1.1,1.06,2.49.36,3.2L98.1,20.65C97.33,21.44,95.82,21.06,94.82,19.82Z" style="fill:#dede47"/><path d="M90.74,27.57l.81-.27c1.5-.49,3,0,3.2,1.09l.78,3.74c.2,1-.69,2-2,2.49h0c-1.35.44-2.71.09-3.12-.81l-1.57-3.48C88.34,29.33,89.24,28.06,90.74,27.57Z" style="fill:#c4c43f"/><path d="M69.09,25.84l.69.48c1.29.91,1.78,2.4,1,3.22L68.3,32.4c-.65.74-2.06.68-3.22-.14h0c-1.16-.82-1.69-2.12-1.22-3l1.84-3.35C66.23,25,67.79,24.92,69.09,25.84Z" style="fill:#c4c43f"/><path d="M43.28,27.71l.84.11c1.57.19,2.7,1.27,2.45,2.34l-.88,3.71c-.23,1-1.49,1.57-2.9,1.4h0c-1.41-.18-2.5-1.07-2.49-2.06l0-3.81C40.36,28.3,41.71,27.52,43.28,27.71Z" style="fill:#dede47"/><path d="M71.84,10.3,70.42,5a2.72,2.72,0,0,0-5.34,1l.6,5.46a2.73,2.73,0,0,0,3.21,2.38l.82-.16A2.72,2.72,0,0,0,71.84,10.3Z" style="fill:#dede47"/><path d="M74.89,32.83l.78.31a2.73,2.73,0,0,1,1.47,3.72l-2.39,5a2.71,2.71,0,0,1-3.44,1.35h0a2.71,2.71,0,0,1-1.61-3.32l1.59-5.26A2.74,2.74,0,0,1,74.89,32.83Z" style="fill:#dede47"/><path d="M30.7,31l.84,0a2.73,2.73,0,0,1,2.81,2.85l-.25,5.48a2.72,2.72,0,0,1-2.63,2.6h0a2.71,2.71,0,0,1-2.79-2.42L28.08,34A2.72,2.72,0,0,1,30.7,31Z" style="fill:#dede47"/><path d="M14.78,31.34l.61.58a2.72,2.72,0,0,1,0,4L11.28,39.6a2.72,2.72,0,0,1-3.7,0h0a2.73,2.73,0,0,1-.25-3.69l3.46-4.27A2.73,2.73,0,0,1,14.78,31.34Z" style="fill:#dede47"/><path d="M30.34,12.33l-.82.2a2.72,2.72,0,0,1-3.34-2.2l-.9-5.41a2.71,2.71,0,0,1,2-3.09h0a2.7,2.7,0,0,1,3.23,1.78l1.73,5.22A2.73,2.73,0,0,1,30.34,12.33Z" style="fill:#dede47"/><circle cx="35.64" cy="19.19" r="3.36" style="fill:#dede47"/><circle cx="81.21" cy="24.06" r="3.36" style="fill:#dede47"/><circle cx="59" cy="18.61" r="3.36" style="fill:#dede47"/><path d="M62.33,12.13l1.39-5.32A2.72,2.72,0,0,0,58.59,5l-2.19,5A2.73,2.73,0,0,0,58,13.74l.8.27A2.72,2.72,0,0,0,62.33,12.13Z" style="fill:#dede47"/><path d="M56.82,28.37l.8.24c1.52.46,2.45,1.71,2,2.72l-1.49,3.51c-.39.91-1.74,1.3-3.1.89h0c-1.36-.41-2.28-1.48-2.1-2.45l.69-3.75C53.83,28.45,55.3,27.91,56.82,28.37Z" style="fill:#dede47"/></g></svg>