<svg xmlns="http://www.w3.org/2000/svg" xmlns:xlink="http://www.w3.org/1999/xlink" width="330" height="130" viewBox="0 0 330 130"><defs><radialGradient id="radial-gradient" cx="-62.28" cy="392.31" r="5.54" gradientTransform="translate(131.94 -230.86) scale(1.09 0.66)" gradientUnits="userSpaceOnUse"><stop offset="0" stop-color="#f0cf95"/><stop offset="1" stop-color="#cc9145"/></radialGradient><radialGradient id="radial-gradient-2" cx="823" cy="-397.72" r="5.54" gradientTransform="matrix(0.68, 0.25, -0.23, 0.62, -566.18, 74.9)" xlink:href="#radial-gradient"/><radialGradient id="radial-gradient-3" cx="104.04" cy="1049.13" r="5.54" gradientTransform="matrix(0.69, -0.25, 0.23, 0.62, -263.52, -592.73)" xlink:href="#radial-gradient"/><linearGradient id="linear-gradient" x1="79" y1="85.74" x2="104" y2="85.74" gradientUnits="userSpaceOnUse"><stop offset="0" stop-color="#996d34"/><stop offset="1" stop-color="#755327"/></linearGradient><radialGradient id="radial-gradient-4" cx="58.03" cy="41.51" r="41.3" gradientTransform="matrix(1, 0, 0, 1, 0, 0)" xlink:href="#radial-gradient"/><radialGradient id="radial-gradient-5" cx="48.77" cy="45.21" r="62.78" gradientUnits="userSpaceOnUse"><stop offset="0" stop-color="#fff"/><stop offset="0.01" stop-color="#fff" stop-opacity="0.96"/><stop offset="0.09" stop-color="#fff" stop-opacity="0.76"/><stop offset="0.17" stop-color="#fff" stop-opacity="0.58"/><stop offset="0.26" stop-color="#fff" stop-opacity="0.43"/><stop offset="0.35" stop-color="#fff" stop-opacity="0.29"/><stop offset="0.44" stop-color="#fff" stop-opacity="0.19"/><stop offset="0.54" stop-color="#fff" stop-opacity="0.1"/><stop offset="0.66" stop-color="#fff" stop-opacity="0.04"/><stop offset="0.79" stop-color="#fff" stop-opacity="0.01"/><stop offset="1" stop-color="#fff" stop-opacity="0"/></radialGradient></defs><g id="Layer_3" data-name="Layer 3"><path d="M298.5,70a17.5,17.5,0,0,1,0,35H107V70H298.5m0-10H97v55H298.5a27.5,27.5,0,0,0,0-55Z" style="fill:#ccbfa2"/><path d="M119,60H298.39a27.5,27.5,0,0,1,23.69,41.47,5,5,0,0,1-7.81.92h0a5.06,5.06,0,0,1-.74-6.12A17.45,17.45,0,0,0,315.88,87c-.27-9.56-8.47-17-18-17H119Z" style="fill:#f9f0e0"/><rect x="112" y="74" width="191" height="13" rx="6.5" style="fill:#ebdad3;opacity:0.33"/><circle cx="64" cy="65" r="50" style="fill:#332d29"/><path d="M71.5,28.07c0-1.37-3.36-2.48-7.5-2.48s-7.5,1.11-7.5,2.48v1.45h.44c1,1,3.8,1,7.06,1s6-.06,7.06-1h.44Z" style="fill:url(#radial-gradient)"/><ellipse cx="64" cy="29.52" rx="7.5" ry="2.5" style="fill:#966c33"/><path d="M64,28.58c-1.15,0-2.08.42-2.08.94v3.75h4.16V29.52C66.08,29,65.15,28.58,64,28.58Z" style="fill:#cc9145"/><path d="M87.92,33.63c.46-1.29-1.25-3.09-3.83-4s-5.06-.66-5.52.62l-.5,1.37.27.1c.32,1.13,2,1.82,4,2.56s3.79,1.31,4.76.64l.27.1Z" style="fill:url(#radial-gradient-2)"/><ellipse cx="82.75" cy="33.29" rx="2.5" ry="4.98" transform="matrix(0.34, -0.94, 0.94, 0.34, 23.16, 99.66)" style="fill:#966c33"/><path d="M83.07,32.41a1.12,1.12,0,0,0-1.48.46l-1.28,3.52,2.3.84,1.29-3.52A1.12,1.12,0,0,0,83.07,32.41Z" style="fill:#cc9145"/><path d="M49.48,30.21c-.47-1.29-3-1.56-5.57-.61s-4.34,2.76-3.87,4L40.53,35l.28-.1c1,.66,2.74.09,4.79-.66s3.78-1.44,4.1-2.58l.28-.1Z" style="fill:url(#radial-gradient-3)"/><ellipse cx="45.25" cy="33.29" rx="5.02" ry="2.5" transform="matrix(0.94, -0.34, 0.34, 0.94, -8.66, 17.49)" style="fill:#966c33"/><path d="M44.93,32.41c-.66.24-1,.83-.87,1.31l1.28,3.53,2.4-.87-1.29-3.53A1.15,1.15,0,0,0,44.93,32.41Z" style="fill:#cc9145"/><path d="M103.07,65.77C99.14,50,83.15,38.27,64,38.27S28.86,50,24.93,65.77H24v7.5c0,19.33,17.91,35,40,35s40-15.67,40-35v-7.5Z" style="fill:#996d34"/><path d="M104,65.77v7.5c0,14.68-10.35,27.26-25,32.45v-7.5C93.65,93,104,80.45,104,65.77Z" style="fill:url(#linear-gradient)"/><ellipse cx="64" cy="65.77" rx="35" ry="30" style="fill:#e6dccf"/><path d="M64,38.27C82.84,38.27,98.2,51,99,67c0-.42,0-.83,0-1.25,0-16.57-15.67-30-35-30s-35,13.43-35,30c0,.42,0,.83,0,1.25C29.8,51,45.16,38.27,64,38.27Z" style="fill:#966c33"/><path d="M64,30.77c-22.09,0-40,15.67-40,35s17.91,35,40,35,40-15.67,40-35S86.09,30.77,64,30.77Zm0,65c-19.33,0-35-13.43-35-30s15.67-30,35-30,35,13.43,35,30S83.33,95.77,64,95.77Z" style="fill:#cc9145"/><path d="M98.27,53.36h0a2.48,2.48,0,0,1-3-1.07C89.52,42.49,77.68,35.77,64,35.77,45.57,35.77,30.46,48,29.1,63.48a2.49,2.49,0,0,1-2.48,2.29h0a2.5,2.5,0,0,1-2.5-2.7C25.69,45,43,30.77,64,30.77c15.51,0,29,7.72,35.6,19A2.49,2.49,0,0,1,98.27,53.36Z" style="fill:url(#radial-gradient-4)"/><path d="M95.25,68.27H90a1.25,1.25,0,0,1,0-2.5h5.21a1.25,1.25,0,0,1,0,2.5Z"/><path d="M38,68.27H32.75a1.25,1.25,0,0,1,0-2.5H38a1.25,1.25,0,0,1,0,2.5Z"/><path d="M88.81,56.81a1.25,1.25,0,0,1-.53-2.39l2.26-1a1.25,1.25,0,0,1,1,2.27l-2.26,1A1.23,1.23,0,0,1,88.81,56.81Z"/><path d="M36.94,80.77a1.25,1.25,0,0,1-.53-2.39l2.26-1a1.25,1.25,0,1,1,1,2.27l-2.26,1A1.23,1.23,0,0,1,36.94,80.77Z"/><path d="M64,47.43a1.25,1.25,0,0,1-1.25-1.25V42a1.25,1.25,0,0,1,2.5,0v4.16A1.25,1.25,0,0,1,64,47.43Z"/><path d="M64,93.27A1.25,1.25,0,0,1,62.75,92V87.85a1.25,1.25,0,0,1,2.5,0V92A1.25,1.25,0,0,1,64,93.27Z"/><path d="M78.32,48.42a1.25,1.25,0,0,1-1-2l1.3-1.8a1.25,1.25,0,1,1,2,1.46l-1.3,1.8A1.26,1.26,0,0,1,78.32,48.42Z"/><path d="M48.37,89.92a1.25,1.25,0,0,1-1-2l1.3-1.81a1.25,1.25,0,0,1,2,1.47l-1.3,1.8A1.26,1.26,0,0,1,48.37,89.92Z"/><path d="M39.19,56.81a1.23,1.23,0,0,1-.52-.12l-2.26-1a1.25,1.25,0,0,1,1.05-2.27l2.26,1a1.25,1.25,0,0,1-.53,2.39Z"/><path d="M91.06,80.77a1.23,1.23,0,0,1-.52-.12l-2.26-1a1.25,1.25,0,0,1,1-2.27l2.26,1a1.25,1.25,0,0,1-.53,2.39Z"/><path d="M49.68,48.42a1.26,1.26,0,0,1-1-.52l-1.3-1.8a1.25,1.25,0,1,1,2-1.46l1.3,1.8a1.25,1.25,0,0,1-1,2Z"/><path d="M79.63,89.92a1.26,1.26,0,0,1-1-.52l-1.3-1.8a1.25,1.25,0,1,1,2-1.47l1.3,1.81a1.25,1.25,0,0,1-1,2Z"/><ellipse cx="58.69" cy="60.5" rx="22.19" ry="19.02" style="opacity:0.4;fill:url(#radial-gradient-5)"/><path d="M72.87,90.54a.62.62,0,0,1-.58-.4l-8.87-22.9a.62.62,0,0,1,.35-.81.63.63,0,0,1,.81.36l8.88,22.9a.63.63,0,0,1-.36.81A.62.62,0,0,1,72.87,90.54Z" style="fill:#e62e2e"/><path d="M65.56,67A1.6,1.6,0,1,1,64,65.77,1.43,1.43,0,0,1,65.56,67Z" style="fill:#e62e2e"/><path d="M64,5a60,60,0,1,0,60,60A60.07,60.07,0,0,0,64,5Zm0,110a50,50,0,1,1,50-50A50,50,0,0,1,64,115Z" style="fill:#ccbfa2"/><path d="M69,10a5,5,0,0,1-5,5A50.06,50.06,0,0,0,14,65,5,5,0,0,1,4,65,60.07,60.07,0,0,1,64,5,5,5,0,0,1,69,10Z" style="fill:#f9f0e0"/></g></svg>